<?xml version="1.0" standalone="no"?>
<!DOCTYPE svg PUBLIC "-//W3C//DTD SVG 20010904//EN"
 "http://www.w3.org/TR/2001/REC-SVG-20010904/DTD/svg10.dtd">
<svg version="1.0" xmlns="http://www.w3.org/2000/svg"
 width="936.000000pt" height="936.000000pt" viewBox="0 0 936.000000 936.000000"
 preserveAspectRatio="xMidYMid meet">
<metadata>
Created by potrace 1.11, written by Peter Selinger 2001-2013
</metadata>
<g transform="translate(0.000000,936.000000) scale(0.100000,-0.100000)"
fill="#000000" stroke="none">
<path d="M4439 9286 c-2 -2 -47 -7 -99 -11 -138 -10 -237 -19 -330 -32 -25 -3
-56 -7 -70 -8 -14 -2 -27 -4 -30 -5 -3 -1 -8 -2 -12 -1 -4 0 -31 -4 -60 -9
-29 -5 -66 -12 -83 -15 -16 -2 -41 -7 -55 -10 -14 -3 -41 -8 -60 -12 -43 -9
-42 -8 -60 -16 -8 -4 -26 -9 -40 -11 -52 -10 -140 -39 -211 -70 -20 -8 -39
-12 -43 -9 -3 4 -6 1 -6 -5 0 -7 -6 -12 -13 -12 -10 0 -117 -40 -252 -95 -11
-5 -22 -9 -25 -10 -41 -10 -80 -32 -80 -44 0 -17 74 -224 90 -253 6 -10 10
-22 10 -27 0 -5 5 -22 12 -38 6 -15 12 -32 14 -38 1 -5 8 -23 15 -40 7 -16 13
-32 13 -35 3 -11 51 -140 87 -235 13 -33 24 -65 25 -70 1 -6 11 -33 22 -60 11
-28 30 -77 43 -110 12 -33 30 -79 41 -102 10 -23 18 -45 18 -48 0 -15 137
-304 193 -410 90 -166 186 -287 237 -300 56 -14 299 138 720 449 52 39 100 74
105 78 6 5 21 17 34 28 13 11 27 20 31 20 4 0 21 14 38 30 18 17 36 30 41 30
5 0 11 4 13 8 2 4 44 39 93 77 50 38 97 75 105 82 8 7 47 38 85 69 134 106
229 187 233 196 2 5 8 8 12 8 5 0 20 10 33 23 13 12 36 33 53 46 134 110 364
328 489 462 67 72 154 189 161 217 3 12 10 22 16 22 5 0 7 4 3 9 -3 5 -2 12 3
15 17 10 13 88 -5 108 -45 50 -212 107 -363 123 -19 2 -35 4 -35 5 0 1 -11 3
-25 5 -14 2 -50 6 -80 10 -30 3 -75 9 -100 11 -53 6 -945 15 -951 10z"/>
<path d="M2564 8917 c-6 -7 -37 -34 -70 -62 -32 -27 -65 -57 -74 -65 -9 -8
-45 -40 -81 -70 -85 -73 -116 -100 -149 -130 -15 -14 -50 -44 -76 -66 -27 -23
-60 -52 -74 -64 -14 -12 -49 -43 -79 -68 -29 -26 -63 -56 -76 -67 -44 -40
-148 -130 -167 -145 -10 -8 -39 -33 -62 -55 -24 -22 -88 -80 -142 -130 -118
-107 -532 -520 -591 -590 -121 -144 -185 -234 -191 -268 -7 -43 51 -75 203
-110 61 -14 118 -26 128 -26 44 -3 57 -6 57 -11 0 -3 15 -5 33 -5 17 -1 64 -5
102 -9 271 -31 486 -39 985 -39 393 0 553 4 640 18 72 11 106 18 127 26 13 5
23 6 23 3 0 -7 78 36 103 56 26 21 55 70 62 105 8 37 9 119 1 160 -3 17 -8 41
-10 55 -3 14 -5 25 -6 25 -1 0 -3 8 -5 18 -10 51 -117 364 -154 452 -5 11 -25
61 -44 110 -65 165 -99 250 -114 282 -8 17 -16 37 -17 45 -2 7 -8 25 -14 39
-5 14 -38 95 -71 180 -34 85 -68 168 -75 184 -8 17 -31 75 -53 129 -39 101
-49 115 -69 93z"/>
<path d="M6577 8886 c-20 -8 -43 -18 -50 -24 -6 -5 -38 -24 -71 -42 -32 -17
-65 -38 -73 -46 -8 -8 -18 -14 -22 -14 -7 0 -152 -100 -196 -135 -11 -9 -32
-24 -47 -33 -16 -9 -28 -20 -28 -24 0 -4 -4 -8 -9 -8 -5 0 -20 -9 -33 -20 -12
-10 -106 -85 -208 -166 -102 -81 -187 -150 -190 -153 -3 -4 -27 -25 -55 -46
-27 -22 -56 -47 -65 -55 -9 -8 -30 -26 -46 -39 -58 -49 -279 -243 -351 -308
-356 -324 -620 -585 -766 -757 -23 -26 -47 -53 -52 -60 -6 -6 -32 -41 -59 -78
-54 -77 -72 -124 -54 -146 17 -19 123 -70 238 -114 52 -20 104 -39 115 -44 11
-4 23 -8 28 -9 4 -2 9 -4 12 -5 3 -1 8 -3 13 -5 4 -1 14 -4 22 -8 8 -3 67 -22
130 -42 63 -20 122 -39 130 -42 8 -3 20 -7 27 -9 15 -3 83 -24 103 -31 8 -3
20 -7 25 -8 6 -2 40 -13 78 -25 37 -12 73 -23 80 -24 6 -2 19 -6 27 -9 8 -4
59 -18 113 -32 53 -14 107 -29 120 -34 12 -5 25 -9 30 -10 4 0 8 -1 10 -2 7
-2 44 -11 57 -13 8 -2 22 -6 30 -9 47 -16 158 -47 171 -47 9 0 19 -3 23 -7 3
-4 14 -8 23 -9 9 -2 28 -6 42 -10 14 -4 28 -8 31 -9 3 0 14 -4 25 -8 11 -3 31
-8 45 -11 29 -6 22 -4 220 -56 85 -23 162 -43 170 -44 8 -2 35 -10 60 -17 47
-13 50 -14 90 -23 22 -5 177 -45 350 -92 30 -8 64 -16 75 -18 11 -3 103 -28
205 -56 294 -81 276 -79 283 -43 9 46 -1 263 -18 393 -3 19 -7 60 -10 90 -3
30 -8 66 -11 80 -2 14 -7 43 -10 65 -2 22 -7 56 -11 75 -3 19 -7 46 -9 60 -5
48 -21 156 -30 200 -2 14 -7 37 -9 53 -3 15 -7 39 -10 55 -3 15 -8 41 -10 57
-2 17 -9 53 -15 80 -6 28 -12 61 -14 75 -8 53 -17 106 -22 119 -2 8 -7 30 -10
50 -3 20 -17 86 -30 146 -14 61 -26 119 -28 130 -2 16 -15 71 -21 95 -1 3 -5
23 -9 45 -5 22 -15 67 -23 100 -8 33 -16 67 -18 75 -2 8 -11 44 -20 80 -9 36
-19 72 -21 80 -48 190 -66 250 -112 380 -16 47 -37 103 -47 125 -9 22 -18 45
-19 50 -12 46 -116 255 -127 255 -5 0 -9 6 -9 13 0 6 -13 24 -29 40 -33 30
-65 34 -124 13z"/>
<path d="M7287 8462 c-13 -14 -15 -36 -12 -117 2 -55 6 -113 10 -130 5 -32 15
-90 17 -102 0 -5 6 -31 13 -59 6 -28 11 -60 10 -72 -1 -12 1 -22 5 -22 4 0 10
-17 13 -37 7 -44 7 -44 41 -183 15 -58 29 -121 32 -140 3 -19 9 -37 13 -40 3
-3 7 -14 8 -25 0 -11 3 -29 6 -40 13 -50 78 -312 83 -334 3 -13 12 -51 20 -85
8 -34 17 -70 19 -81 12 -54 17 -75 16 -80 0 -2 5 -19 10 -37 12 -40 18 -65 25
-98 27 -143 121 -504 152 -582 38 -99 99 -163 172 -182 74 -18 215 -8 325 25
38 11 155 40 175 43 30 5 232 62 260 73 8 3 21 7 29 9 8 1 42 16 76 33 169 84
185 180 78 471 -19 52 -43 114 -54 137 -10 24 -19 45 -19 48 0 15 -87 196
-126 261 -24 41 -44 79 -44 83 0 5 -3 11 -7 13 -5 2 -21 23 -38 48 -33 50 -43
63 -65 89 -8 10 -22 29 -30 43 -8 14 -27 41 -42 59 -15 19 -60 75 -100 124
-40 50 -75 92 -78 95 -3 3 -39 43 -79 90 -89 101 -395 407 -466 466 -27 23
-60 51 -72 61 -24 21 -41 34 -128 96 -114 80 -217 113 -248 79z"/>
<path d="M1028 6684 c-2 -1 -61 -5 -133 -8 -71 -4 -139 -9 -150 -11 -11 -3
-36 -7 -55 -10 -55 -8 -93 -15 -115 -22 -11 -4 -26 -8 -34 -9 -51 -9 -106
-125 -118 -249 -9 -93 -9 -398 1 -510 5 -49 9 -106 11 -125 6 -74 21 -215 30
-270 6 -42 16 -122 20 -170 2 -19 4 -35 5 -35 1 0 3 -9 4 -20 2 -11 7 -45 11
-75 5 -30 10 -64 11 -75 3 -26 14 -95 19 -120 2 -11 7 -42 10 -70 4 -27 8 -57
10 -65 3 -8 7 -33 10 -55 5 -38 12 -83 21 -132 11 -62 14 -80 19 -122 4 -25
11 -70 17 -100 5 -30 11 -64 13 -75 1 -12 8 -52 15 -91 7 -38 14 -79 15 -90
11 -69 23 -130 25 -130 1 0 3 -16 6 -35 2 -19 9 -60 15 -90 5 -30 12 -66 15
-80 3 -14 12 -59 20 -100 15 -72 19 -93 28 -142 14 -78 42 -171 53 -175 7 -3
24 8 38 24 14 15 40 44 58 63 18 20 48 55 67 80 19 24 50 62 68 84 19 23 48
58 65 80 18 21 37 44 42 50 17 19 79 97 150 191 38 50 72 92 75 95 3 3 17 21
30 40 13 19 27 37 30 40 4 3 44 55 91 115 46 61 87 115 91 120 22 28 440 580
460 607 9 13 55 75 102 138 46 63 94 126 105 140 11 14 54 72 96 130 42 58 81
112 88 120 7 8 38 51 69 95 32 44 93 128 135 187 43 58 84 115 91 125 7 10 60
86 118 168 151 215 196 293 181 316 -11 18 -106 66 -143 72 -10 1 -25 6 -31
10 -7 5 -13 6 -13 2 0 -3 -8 -1 -19 4 -10 6 -33 13 -52 16 -19 3 -45 8 -59 10
-14 3 -36 8 -50 10 -14 3 -41 8 -60 11 -19 2 -48 8 -65 11 -38 8 -69 12 -121
17 -23 2 -46 6 -50 8 -5 3 -27 6 -49 7 -44 3 -90 8 -90 11 0 1 -18 3 -40 5
-22 2 -69 6 -105 10 -78 7 -149 13 -395 31 -38 3 -124 7 -190 9 -66 2 -120 5
-120 5 0 6 -335 4 -347 -2 -10 -5 -18 -5 -18 0 0 8 -26 13 -32 6z"/>
<path d="M3990 6320 c-19 -4 -25 -12 -24 -31 2 -31 14 -109 20 -131 3 -9 7
-27 10 -40 9 -39 12 -53 14 -53 1 0 3 -11 6 -25 4 -26 22 -88 55 -197 10 -34
21 -70 22 -80 2 -10 7 -25 10 -33 6 -14 71 -222 119 -380 11 -36 20 -72 21
-80 1 -8 4 -17 7 -20 3 -3 63 -180 134 -395 71 -214 131 -394 134 -399 6 -10
102 -284 106 -301 3 -16 49 -141 76 -210 10 -24 90 -244 136 -375 19 -52 38
-104 43 -115 6 -11 44 -107 85 -213 133 -338 196 -466 273 -548 53 -58 87 -78
110 -66 20 11 104 98 173 181 25 29 52 61 60 70 19 20 169 213 235 301 27 36
52 67 55 70 3 3 10 12 15 21 6 9 30 42 55 74 25 32 50 64 55 73 6 8 17 23 25
32 8 9 24 29 34 44 11 15 28 37 38 48 10 12 18 24 18 28 0 4 11 20 25 36 14
16 25 32 25 36 0 4 7 14 16 22 9 9 32 40 52 68 19 29 39 57 44 63 5 5 56 75
113 155 57 80 108 150 112 155 4 6 22 30 38 55 17 25 33 47 38 48 4 2 7 8 7
13 0 7 43 70 79 115 4 5 21 30 37 55 16 24 33 49 39 56 16 20 29 38 40 55 13
21 287 430 298 443 32 42 187 294 187 305 0 5 5 10 10 10 6 0 10 4 10 9 0 6
10 27 23 48 12 20 32 60 44 88 25 58 21 66 -46 97 -44 20 -373 137 -389 138
-4 0 -36 10 -72 21 -57 18 -175 52 -220 63 -8 2 -49 14 -90 26 -41 12 -79 22
-85 24 -5 1 -37 11 -70 21 -33 10 -67 19 -75 21 -8 1 -49 11 -90 22 -63 18
-272 73 -332 88 -27 6 -48 12 -113 30 -33 9 -67 17 -75 19 -8 2 -35 8 -60 14
-25 7 -53 13 -62 16 -59 14 -200 48 -237 57 -24 6 -50 11 -57 11 -8 0 -14 4
-14 9 0 5 -4 7 -8 4 -5 -3 -35 2 -68 11 -32 8 -66 16 -75 18 -8 2 -44 10 -80
19 -60 15 -78 18 -146 31 -16 3 -39 8 -53 12 -14 3 -29 7 -35 9 -5 1 -26 5
-45 8 -19 4 -73 16 -120 27 -47 11 -94 22 -105 24 -102 19 -153 28 -170 31
-36 6 -80 14 -105 20 -14 4 -41 8 -60 10 -81 7 -136 14 -155 17 -11 2 -31 1
-45 -3z"/>
<path d="M3510 6063 c-30 -20 -176 -169 -245 -250 -27 -31 -60 -68 -72 -80
-12 -13 -20 -23 -18 -23 2 0 -9 -12 -23 -28 -15 -15 -45 -49 -67 -76 -76 -93
-90 -110 -125 -151 -19 -22 -53 -63 -75 -89 -22 -27 -47 -56 -55 -66 -8 -10
-27 -33 -42 -51 -14 -19 -36 -45 -47 -59 -26 -31 -29 -35 -71 -90 -19 -24 -41
-51 -48 -58 -7 -8 -25 -30 -40 -50 -15 -21 -32 -41 -38 -47 -6 -5 -26 -30 -45
-55 -18 -25 -46 -58 -61 -75 -15 -16 -28 -33 -28 -36 0 -3 -9 -17 -21 -30 -18
-20 -42 -50 -121 -154 -37 -48 -80 -103 -91 -115 -7 -8 -35 -44 -62 -80 -27
-36 -56 -73 -64 -82 -9 -9 -29 -34 -44 -55 -16 -21 -62 -83 -102 -138 -90
-121 -82 -110 -127 -167 -21 -25 -38 -51 -38 -56 0 -6 -4 -12 -8 -14 -7 -3
-85 -103 -122 -158 -8 -12 -23 -31 -33 -43 -10 -12 -28 -37 -40 -57 -11 -19
-27 -41 -34 -48 -6 -7 -34 -45 -60 -85 -26 -39 -50 -74 -53 -77 -8 -8 -105
-160 -136 -215 -51 -88 -80 -188 -75 -256 1 -17 34 -33 86 -44 17 -3 41 -7 55
-10 14 -3 46 -7 71 -10 25 -3 56 -7 68 -10 12 -2 50 -7 84 -10 34 -4 78 -8 97
-10 19 -3 68 -7 109 -10 41 -3 78 -8 82 -11 5 -3 9 1 9 8 0 8 3 9 8 3 4 -6 18
-11 32 -12 14 -1 63 -4 110 -7 47 -3 123 -8 170 -11 127 -9 157 -12 169 -19 6
-4 11 -2 11 4 0 6 4 9 8 6 5 -3 55 -8 113 -11 57 -3 138 -8 179 -10 41 -2 120
-7 175 -10 55 -3 153 -8 218 -10 66 -3 123 -7 127 -10 5 -3 11 -1 15 5 4 6 11
7 17 4 11 -7 98 -11 360 -18 92 -2 172 -7 178 -11 5 -3 10 -2 10 4 0 5 14 7
33 4 43 -8 640 -8 742 -1 44 4 99 10 123 13 39 7 42 10 42 41 0 18 -6 64 -14
101 -8 38 -18 82 -21 98 -3 17 -7 35 -9 42 -1 7 -5 15 -8 19 -4 3 -4 12 -1 20
3 8 0 14 -7 14 -6 0 -9 4 -6 9 3 4 -4 39 -15 77 -11 38 -22 77 -25 87 -13 54
-49 178 -57 197 -14 37 -49 156 -50 172 -1 10 -5 18 -9 18 -4 0 -8 11 -8 23 0
13 -3 27 -7 31 -4 3 -8 15 -10 25 -1 9 -34 114 -72 232 -39 118 -76 232 -82
254 -7 22 -17 46 -22 53 -5 6 -6 12 -3 12 4 0 2 9 -4 21 -6 11 -13 28 -15 37
-2 9 -13 44 -25 77 -12 33 -23 67 -25 75 -2 8 -22 67 -45 130 -62 172 -99 279
-120 340 -20 60 -71 198 -91 245 -7 17 -13 32 -14 35 -7 29 -30 88 -38 98 -5
6 -6 12 -2 12 4 0 3 6 -3 13 -5 6 -21 46 -35 87 -66 191 -238 579 -272 614
-20 20 -25 20 -55 -1z"/>
<path d="M8857 5924 c-1 -1 -24 -4 -52 -8 -65 -8 -77 -10 -160 -36 -76 -24
-198 -79 -203 -92 -2 -4 -8 -8 -14 -8 -16 0 -125 -88 -158 -128 -82 -100 -94
-182 -48 -345 15 -56 30 -109 32 -117 13 -48 124 -347 151 -407 8 -17 15 -33
15 -36 0 -2 10 -26 22 -53 12 -27 23 -51 23 -54 1 -3 13 -31 28 -64 15 -32 27
-60 27 -62 0 -1 35 -74 77 -161 42 -87 76 -161 75 -165 -1 -5 2 -8 8 -8 5 0
10 -5 10 -12 0 -11 137 -258 149 -268 3 -3 12 -17 20 -32 8 -15 22 -37 33 -47
10 -11 18 -23 18 -26 0 -6 36 -59 55 -81 113 -133 173 -184 218 -184 21 0 65
34 66 53 1 4 7 22 15 41 7 18 17 48 22 67 4 19 9 39 10 44 7 26 16 73 19 100
2 17 4 30 5 30 2 0 18 151 28 270 9 112 9 797 -1 933 -9 130 -12 160 -32 332
-9 72 -24 160 -41 229 -9 36 -17 72 -19 82 -2 9 -8 25 -13 35 -5 11 -17 37
-28 59 -27 57 -91 94 -189 112 -24 4 -164 10 -168 7z"/>
<path d="M138 5195 c-3 -3 -16 -8 -28 -10 -25 -5 -66 -39 -81 -67 -28 -52 -30
-410 -3 -608 2 -19 6 -53 9 -75 3 -22 7 -56 10 -75 3 -19 7 -53 10 -75 3 -22
7 -51 11 -65 3 -14 7 -36 8 -50 1 -14 6 -41 9 -60 4 -19 9 -46 11 -60 2 -14 7
-32 10 -40 3 -8 7 -31 10 -50 3 -19 10 -49 15 -67 5 -17 7 -34 3 -37 -3 -3 -1
-6 4 -6 5 0 10 -12 11 -28 3 -42 60 -209 96 -282 82 -165 147 -141 174 65 12
92 5 430 -12 525 -2 14 -6 50 -10 80 -3 30 -8 71 -10 90 -3 19 -7 55 -10 80
-3 25 -7 56 -10 70 -2 14 -7 45 -10 70 -3 25 -10 70 -15 100 -5 30 -11 71 -14
90 -3 19 -8 46 -11 60 -2 14 -7 39 -10 55 -18 93 -45 201 -62 245 -4 8 -6 17
-5 20 0 3 -12 23 -26 44 -28 40 -64 70 -74 61z"/>
<path d="M7531 5022 c-67 -69 -83 -88 -181 -212 -41 -52 -83 -104 -93 -115
-18 -19 -62 -76 -228 -295 -40 -52 -101 -132 -135 -177 -35 -46 -64 -85 -64
-89 0 -3 -9 -16 -20 -28 -19 -20 -107 -137 -140 -187 -8 -12 -26 -36 -40 -53
-14 -17 -32 -41 -40 -52 -35 -50 -164 -229 -169 -234 -3 -3 -10 -13 -16 -22
-5 -9 -50 -72 -100 -140 -49 -67 -125 -172 -167 -233 -42 -60 -80 -115 -85
-120 -4 -6 -37 -53 -72 -105 -36 -52 -67 -97 -70 -100 -3 -3 -15 -21 -25 -40
-11 -19 -22 -37 -25 -40 -4 -3 -43 -61 -88 -130 -93 -143 -145 -242 -135 -252
4 -4 39 -11 77 -15 79 -9 1002 -8 1230 1 395 15 679 30 785 41 25 2 86 7 135
10 50 3 104 8 120 10 31 4 75 9 180 21 33 3 69 8 80 11 11 2 42 6 69 9 27 2
52 6 55 9 4 2 30 7 57 10 27 4 81 16 119 26 39 11 77 22 85 24 107 25 215 88
253 147 24 37 28 52 26 108 -1 36 -6 83 -12 105 -5 22 -10 47 -12 55 -2 8 -4
16 -5 18 -2 1 -3 5 -4 10 -2 4 -9 27 -16 52 -7 25 -14 48 -14 52 -1 3 -4 10
-8 14 -5 4 -8 17 -8 29 0 11 -4 25 -9 31 -5 5 -19 37 -31 72 -13 34 -27 65
-31 68 -5 3 -9 11 -9 19 0 8 -5 26 -12 42 -6 15 -11 31 -10 36 1 4 -2 7 -8 7
-5 0 -10 5 -10 10 0 6 -19 50 -42 98 -23 48 -42 89 -42 92 -2 10 -145 286
-180 348 -20 35 -36 66 -36 68 0 2 -18 33 -40 69 -22 36 -40 67 -40 69 0 3
-35 62 -78 133 -43 70 -85 139 -93 152 -8 14 -22 34 -31 45 -10 11 -18 24 -18
28 0 5 -8 18 -18 29 -11 10 -25 32 -33 47 -8 15 -16 29 -19 32 -4 3 -22 27
-41 55 -121 174 -278 343 -346 371 -51 22 -63 18 -122 -44z"/>
<path d="M1216 2733 c-2 -2 -17 -6 -32 -7 -16 -2 -32 -4 -36 -5 -14 -2 -8 -78
9 -117 9 -22 17 -41 18 -44 12 -39 101 -215 166 -327 28 -48 63 -108 77 -133
14 -25 29 -46 34 -48 4 -2 8 -8 8 -13 0 -7 72 -120 229 -359 30 -47 59 -89 64
-95 4 -5 50 -71 102 -145 51 -74 97 -140 102 -145 4 -6 24 -33 42 -60 19 -28
37 -52 40 -55 4 -3 40 -50 81 -105 41 -55 77 -102 80 -105 3 -3 17 -21 31 -40
15 -19 36 -46 48 -60 11 -14 24 -29 29 -35 136 -166 278 -310 344 -349 185
-108 384 -55 719 192 64 47 143 109 166 128 12 11 32 28 45 38 19 15 111 95
178 153 8 7 42 38 74 68 33 30 62 55 65 55 9 0 379 377 428 435 41 50 63 76
94 113 24 29 101 143 120 178 10 17 20 46 23 65 5 32 2 37 -35 61 -22 15 -68
38 -102 51 -96 39 -174 68 -188 71 -8 2 -21 6 -29 9 -57 22 -244 76 -250 72
-5 -3 -10 -1 -12 4 -1 6 -16 12 -33 15 -16 2 -30 5 -30 6 0 1 -7 3 -15 5 -8 2
-40 10 -70 19 -184 51 -236 64 -242 60 -4 -2 -9 0 -12 5 -4 5 -25 13 -49 17
-48 9 -55 10 -62 14 -6 3 -9 4 -60 14 -22 4 -41 8 -42 7 -2 0 -21 6 -43 14
-22 8 -44 14 -48 14 -4 0 -28 5 -53 11 -26 6 -55 13 -65 15 -11 2 -19 4 -19 5
0 1 -9 3 -20 5 -11 2 -50 12 -85 21 -36 9 -75 17 -87 18 -13 0 -23 3 -23 6 0
3 -8 6 -17 7 -10 1 -52 9 -93 18 -41 9 -86 19 -100 21 -14 3 -74 16 -135 29
-60 14 -121 27 -135 29 -14 3 -26 5 -27 7 -4 2 -11 4 -68 14 -27 5 -52 9 -55
10 -7 1 -70 14 -100 20 -14 3 -47 9 -75 15 -27 5 -63 12 -80 15 -16 3 -41 7
-55 9 -112 21 -247 42 -315 51 -27 3 -57 8 -65 10 -33 10 -347 34 -354 28z"/>
<path d="M671 2481 c-26 -26 -28 -85 -5 -139 8 -20 15 -39 15 -42 1 -27 96
-184 153 -255 23 -27 48 -58 56 -68 25 -32 230 -245 322 -334 98 -96 195 -173
219 -173 17 0 32 44 20 56 -3 3 -6 9 -7 12 -3 24 -116 254 -158 320 -20 33
-58 98 -90 157 -6 11 -36 58 -67 105 -139 212 -294 359 -397 376 -32 5 -44 2
-61 -15z"/>
<path d="M7847 2143 c-1 0 -92 -4 -202 -8 -309 -10 -353 -13 -364 -19 -5 -4
-12 -2 -16 4 -4 6 -11 7 -17 4 -13 -8 -29 -9 -198 -19 -63 -3 -137 -8 -165
-10 -27 -3 -75 -7 -105 -10 -30 -2 -77 -7 -105 -9 -27 -3 -75 -8 -105 -11
-109 -10 -176 -16 -210 -21 -19 -3 -51 -7 -70 -9 -34 -4 -47 -5 -155 -21 -27
-4 -61 -8 -75 -9 -14 -2 -25 -4 -25 -5 0 0 -16 -3 -35 -5 -19 -3 -46 -7 -60
-10 -14 -3 -52 -10 -84 -16 -33 -5 -63 -12 -68 -15 -4 -3 -17 -7 -28 -10 -11
-2 -29 -6 -40 -8 -135 -30 -167 -165 -98 -411 6 -22 13 -48 15 -57 1 -9 16
-57 32 -105 26 -79 41 -120 67 -188 4 -11 8 -22 8 -25 4 -16 51 -127 59 -137
5 -7 7 -13 4 -13 -12 0 160 -361 176 -368 4 -2 7 -7 7 -12 0 -12 101 -164 112
-168 4 -2 8 -8 8 -13 0 -6 15 -27 34 -47 19 -20 43 -47 54 -59 11 -13 22 -23
26 -23 4 0 16 -9 28 -20 22 -21 40 -25 95 -22 41 2 175 48 230 79 23 13 49 23
57 23 9 0 16 4 16 8 0 4 26 21 58 37 31 16 60 33 64 39 4 6 8 7 8 3 0 -5 12 1
26 12 15 12 33 21 40 21 8 0 14 4 14 8 0 5 12 15 28 23 28 14 323 209 332 219
3 3 57 43 120 89 107 79 167 125 264 204 21 18 46 36 54 41 8 4 22 16 31 25
10 9 37 32 62 52 75 62 127 106 143 120 8 8 45 41 82 74 132 116 270 251 384
375 92 99 206 263 213 305 1 11 5 25 9 30 17 28 -38 55 -147 71 -66 10 -580
25 -588 17z"/>
<path d="M4976 1633 c-14 -8 -26 -11 -26 -8 0 8 -103 -47 -112 -60 -4 -5 -8
-7 -8 -2 0 8 -168 -102 -193 -127 -9 -9 -19 -16 -22 -16 -7 0 -92 -65 -110
-84 -5 -6 -27 -23 -47 -38 -20 -16 -76 -63 -125 -105 -48 -42 -96 -84 -107
-93 -92 -77 -451 -431 -506 -500 -19 -24 -42 -51 -51 -59 -31 -31 -127 -161
-141 -191 -7 -16 -16 -30 -20 -30 -5 0 -8 -7 -8 -15 0 -8 -5 -24 -11 -34 -20
-30 -3 -66 38 -84 59 -25 185 -56 253 -62 14 -1 25 -3 25 -5 0 -1 14 -3 30 -5
17 -1 62 -6 100 -10 39 -4 84 -9 100 -10 260 -27 1027 -27 1370 0 82 7 175 16
205 20 14 2 50 7 80 11 68 10 58 7 103 23 l39 13 -5 57 c-3 31 -8 67 -11 81
-4 14 -9 34 -10 45 -11 64 -150 417 -167 423 -5 2 -9 9 -9 16 0 7 -16 42 -35
77 -19 35 -37 71 -41 79 -10 27 -60 116 -129 231 -28 47 -55 94 -58 103 -4 9
-11 16 -17 16 -6 0 -8 5 -5 10 3 6 2 10 -2 10 -5 0 -17 15 -28 33 -36 61 -110
152 -176 217 -75 74 -121 95 -163 73z"/>
</g>
</svg>
