<?xml version="1.0" encoding="utf-8"?>
<!-- Generator: Adobe Illustrator 22.1.0, SVG Export Plug-In . SVG Version: 6.00 Build 0)  -->
<svg version="1.1" id="BACKGROUND_2" xmlns="http://www.w3.org/2000/svg" xmlns:xlink="http://www.w3.org/1999/xlink" x="0px"
	 y="0px" viewBox="0 0 427.2 427.2" style="enable-background:new 0 0 427.2 427.2;" xml:space="preserve">
<style type="text/css">
	.st0{fill:#8600A7;}
	.st1{fill:#B200DE;}
	.st2{fill:#BF33E4;}
	.st3{opacity:0.5;fill:#BF33E4;}
	.st4{opacity:0.15;fill:#BF33E4;}
</style>
<g>
	<g>
		<path class="st0" d="M207.7,327.9c1.1-2.4,1.1-5.2-0.3-7.7c-2.3-3.9-7.3-5.3-11.2-3l-12.9,7.4c-3.9,2.3-9,0.9-11.2-3
			c-2.3-3.9-0.9-9,3-11.2l30.7-17.7c0.4-0.3,0.7-0.6,1.1-0.8l14.6-8.4c3-2.5,3.9-6.9,1.9-10.4c-2.3-3.9-7.3-5.3-11.2-3l-45.2,26.1
			c-3.9,2.3-9,0.9-11.2-3c-2.3-3.9-0.9-9,3-11.2l15.5-8.9c3.9-2.3,5.3-7.3,3-11.2c-2.3-3.9-7.3-5.3-11.2-3l-15.5,8.9
			c-3.9,2.3-9,0.9-11.2-3c-2.3-3.9-0.9-9,3-11.2l30.7-17.7c0.4-0.3,0.7-0.6,1.1-0.8l8.1-4.7l0.9-0.5c3.9-2.3,5.3-7.3,3-11.2
			c-2.3-3.9-7.3-5.3-11.2-3l-9,5.2c-3.9,2.3-9,0.9-11.2-3c-2.3-3.9-0.9-9,3-11.2l38.8-22.3c3.9-2.3,5.3-7.3,3-11.2
			c-2.3-3.9-7.3-5.3-11.2-3l-38.8,22.3c-3.9,2.3-9,0.9-11.2-3c-2-3.5-1.1-7.9,1.9-10.4c0.4-0.3,0.7-0.6,1.1-0.8l8.1-4.7
			c3-2.5,3.9-6.9,1.9-10.4c-2.3-3.9-7.3-5.3-11.2-3l-38.8,22.3c-1.7,1-3.7,1.3-5.5,1c-4.9,19.2-5.2,39.5-0.3,59.3
			c1.3,5.4,3,10.7,5.1,16c2.1,5.3,4.6,10.5,7.6,15.6c5.5,9.6,12.1,18.1,19.6,25.5c4.1,4.1,8.5,7.9,13.2,11.4
			c16.5,12.3,35.8,20.1,55.9,22.9c0.8,0.1,1.6,0.2,2.3,0.3l5.1-2.9C205.9,330.6,207,329.3,207.7,327.9z"/>
		<path class="st0" d="M244.4,327.2l-11.3,6.5c7.1-1.1,14.1-2.9,21-5.4C251.5,325.9,247.6,325.3,244.4,327.2z"/>
		<path class="st0" d="M119.4,143.6c-0.8-1.3-1.8-2.3-3.1-3c-5.1,6.8-9.5,14.1-13,21.8l13.1-7.5
			C120.3,152.5,121.7,147.5,119.4,143.6z"/>
		<path class="st1" d="M283.7,296.7c-2-3.6-0.8-8.1,2.7-10.2l8.4-4.8c3.9-2.3,5.3-7.3,3-11.2c-2.3-3.9-7.3-5.3-11.2-3l-12.9,7.4
			c-3.9,2.3-9,0.9-11.2-3c-2.3-3.9-0.9-9,3-11.2l45.2-26.1c3.9-2.3,5.3-7.3,3-11.2c-2.3-3.9-7.3-5.3-11.2-3l-45.2,26.1
			c-3.9,2.3-9,0.9-11.2-3c-2.3-3.9-0.9-9,3-11.2l15.5-8.9c3.9-2.3,5.3-7.3,3-11.2c-2.3-3.9-7.3-5.3-11.2-3l-15.5,8.9
			c-3.9,2.3-9,0.9-11.2-3c-2.3-3.9-0.9-9,3-11.2l38.8-22.3c3.9-2.3,5.3-7.3,3-11.2c-2.3-3.9-7.3-5.3-11.2-3l-38.8,22.3
			c-3.9,2.3-9,0.9-11.2-3c-2.3-3.9-0.9-9,3-11.2l9-5.2c3.9-2.3,5.3-7.3,3-11.2c-2.3-3.9-7.3-5.3-11.2-3l-9.1,5.2
			c-3.9,2.3-9,0.9-11.2-3c-2.3-3.9-0.9-9,3-11.2l38.8-22.3c3.9-2.3,5.3-7.3,3-11.2c-2.3-3.9-7.3-5.3-11.2-3l-38.8,22.3
			c-3.9,2.3-9,0.9-11.2-3c-2.3-3.9-0.9-9,3-11.2l23.3-13.4c1-0.6,1.8-1.3,2.5-2.2c1.9-2.5,2.2-6.1,0.5-9c-0.4-0.7-0.8-1.2-1.4-1.8
			c-4.9,0.2-9.8,0.7-14.6,1.5l-14,8c-3.2,1.8-7.2,1-9.5-1.7c-6,2.3-11.8,5-17.5,8.3c-14.7,8.5-27,19.6-36.6,32.3
			c1.2,0.7,2.3,1.7,3.1,3c2.3,3.9,0.9,9-3,11.2l-13.1,7.5c-3.1,6.8-5.7,13.8-7.5,21.1c1.8,0.3,3.8,0,5.5-1l38.8-22.3
			c3.9-2.3,9-0.9,11.2,3c2,3.5,1.1,7.9-1.9,10.4l-8.1,4.7c-0.4,0.2-0.8,0.5-1.1,0.8c-3,2.5-3.9,6.9-1.9,10.4c2.3,3.9,7.3,5.3,11.2,3
			l38.8-22.3c3.9-2.3,9-0.9,11.2,3c2.3,3.9,0.9,9-3,11.2l-38.8,22.3c-3.9,2.3-5.3,7.3-3,11.2c2.3,3.9,7.3,5.3,11.2,3l9-5.2
			c3.9-2.3,9-0.9,11.2,3c2.3,3.9,0.9,9-3,11.2l-0.9,0.5l-8.1,4.7c-0.4,0.2-0.8,0.5-1.1,0.8l-30.7,17.7c-3.9,2.3-5.3,7.3-3,11.2
			c2.3,3.9,7.3,5.3,11.2,3l15.5-8.9c3.9-2.3,9-0.9,11.2,3c2.3,3.9,0.9,9-3,11.2l-15.5,8.9c-3.9,2.3-5.3,7.3-3,11.2
			c2.3,3.9,7.3,5.3,11.2,3l45.2-26.1c3.9-2.3,9-0.9,11.2,3c2,3.5,1.1,7.9-1.9,10.4l-14.6,8.4c-0.4,0.2-0.8,0.5-1.1,0.8l-30.7,17.7
			c-3.9,2.3-5.3,7.3-3,11.2c2.3,3.9,7.3,5.3,11.2,3l12.9-7.4c3.9-2.3,9-0.9,11.2,3c1.4,2.4,1.4,5.3,0.3,7.7
			c-0.7,1.4-1.8,2.7-3.3,3.5l-5.1,2.9c8.1,1,16.2,1.1,24.4,0.4c3.2-0.3,6.3-0.6,9.5-1.2l11.3-6.5c3.2-1.8,7.1-1.3,9.7,1.1
			c6.9-2.4,13.7-5.5,20.2-9.3c12.5-7.2,23.3-16.3,32.1-26.8l-12.5,7.2C290.3,301.5,285.7,300.2,283.7,296.7z"/>
		<path class="st2" d="M179.9,101.6l14-8c-7.9,1.3-15.8,3.4-23.4,6.3C172.7,102.7,176.7,103.5,179.9,101.6z"/>
		<path class="st2" d="M286.3,116.1c-5-3.7-10.2-7-15.7-9.9c-6.1-3.2-12.4-5.9-18.9-8c-13.8-4.6-28.5-6.6-43.2-6
			c0.5,0.5,1,1.1,1.4,1.8c1.7,2.9,1.4,6.5-0.5,9c-0.6,0.9-1.5,1.6-2.5,2.2l-23.3,13.4c-3.9,2.3-5.3,7.3-3,11.2
			c2.3,3.9,7.3,5.3,11.2,3l38.8-22.3c3.9-2.3,9-0.9,11.2,3c2.3,3.9,0.9,9-3,11.2L200,146.9c-3.9,2.3-5.3,7.3-3,11.2
			c2.3,3.9,7.3,5.3,11.2,3l9.1-5.2c3.9-2.3,9-0.9,11.2,3c2.3,3.9,0.9,9-3,11.2l-9,5.2c-3.9,2.3-5.3,7.3-3,11.2
			c2.3,3.9,7.3,5.3,11.2,3l38.8-22.3c3.9-2.3,9-0.9,11.2,3c2.3,3.9,0.9,9-3,11.2l-38.8,22.3c-3.9,2.3-5.3,7.3-3,11.2
			c2.3,3.9,7.3,5.3,11.2,3l15.5-8.9c3.9-2.3,9-0.9,11.2,3c2.3,3.9,0.9,9-3,11.2l-15.5,8.9c-3.9,2.3-5.3,7.3-3,11.2
			c2.3,3.9,7.3,5.3,11.2,3l45.2-26.1c3.9-2.3,9-0.9,11.2,3c2.3,3.9,0.9,9-3,11.2l-45.2,26.1c-3.9,2.3-5.3,7.3-3,11.2
			c2.3,3.9,7.3,5.3,11.2,3l12.9-7.4c3.9-2.3,9-0.9,11.2,3c2.3,3.9,0.9,9-3,11.2l-8.4,4.8c-3.6,2-4.8,6.6-2.7,10.2
			c2,3.6,6.6,4.8,10.2,2.7l12.5-7.2c10.8-12.8,18.8-27.6,23.5-43.3c-0.5-2.5,0.2-5.2,1.9-7.1c1.7-7,2.7-14.1,3.1-21.2
			c0.4-6.3,0.3-12.7-0.4-19c-0.4-4.4-1.1-8.8-2.1-13.2c-1.4-6.7-3.4-13.3-6-19.7c-2-5-4.4-10-7.1-14.8c-0.2-0.3-0.3-0.6-0.5-0.9
			C310.4,138,299.2,125.7,286.3,116.1z"/>
		<path class="st2" d="M330,248.9c0.7-2.4,1.4-4.7,1.9-7.1C330.2,243.7,329.4,246.4,330,248.9z"/>
	</g>
	<path class="st3" d="M312,272.3c-6.6,3.8-13.3,6.9-20.2,9.3c-6.9,2.4-13.9,4.2-21,5.4c-3.2,0.5-6.3,0.9-9.5,1.2
		c-8.2,0.7-16.3,0.5-24.4-0.4c-0.8-0.1-1.6-0.2-2.3-0.3c-20.1-2.8-39.4-10.6-55.9-22.9c-4.6-3.4-9-7.2-13.2-11.4
		c-7.5-7.4-14.1-16-19.6-25.5c-2.9-5.1-5.5-10.3-7.6-15.6c-2.1-5.3-3.8-10.6-5.1-16c-4.9-19.7-4.6-40.1,0.3-59.3
		c1.8-7,4.2-13.9,7.2-20.4c-9.4,7-17.6,15.2-24.4,24.3c-5.1,6.8-9.5,14.1-13,21.8c-3.1,6.8-5.7,13.8-7.5,21.1
		c-4.9,19.2-5.2,39.5-0.3,59.3c1.3,5.4,3,10.7,5.1,16c2.1,5.3,4.6,10.5,7.6,15.6c5.5,9.6,12.1,18.1,19.6,25.5
		c4.1,4.1,8.5,7.9,13.2,11.4c16.5,12.3,35.8,20.1,55.9,22.9c0.8,0.1,1.6,0.2,2.3,0.3c8.1,1,16.2,1.1,24.4,0.4
		c3.2-0.3,6.3-0.6,9.5-1.2c7.1-1.1,14.1-2.9,21-5.4c6.9-2.4,13.7-5.5,20.2-9.3c12.5-7.2,23.3-16.3,32.1-26.8
		c7.2-8.5,13.1-17.9,17.7-27.9C320.3,267.2,316.3,269.8,312,272.3z"/>
</g>
<g>
	<path class="st3" d="M386.1,212.2c0-25.8-5.7-50.2-16-72.1c-0.6,0.3-1.1,0.7-1.8,1c10.1,21.7,15.7,45.8,15.7,71.2
		c0,93.2-75.8,169.1-169.1,169.1c-13.9,0-27.5-1.7-40.4-4.9c-0.1,0.7-0.3,1.3-0.5,1.9c13.1,3.2,26.8,4.9,40.9,4.9
		C309.3,383.3,386.1,306.5,386.1,212.2z M45.9,212.2C45.9,119,121.8,43.1,215,43.1c55.7,0,105.2,27.1,136,68.8
		c0.5-0.4,1.1-0.8,1.7-1.1C321.5,68.6,271.4,41.1,215,41.1c-94.3,0-171.1,76.8-171.1,171.1c0,72.3,45.1,134.2,108.6,159.3
		c0.2-0.6,0.4-1.3,0.7-1.9C90.5,344.9,45.9,283.7,45.9,212.2z"/>
	<path class="st3" d="M174.1,378.4c0.2-0.6,0.4-1.3,0.5-1.9c0.1-0.5,0.1-1.1,0.1-1.7c0-6.3-5.1-11.3-11.3-11.3
		c-4.4,0-8.3,2.5-10.1,6.2c-0.3,0.6-0.5,1.2-0.7,1.9c-0.3,1-0.5,2.1-0.5,3.3c0,6.3,5.1,11.3,11.3,11.3
		C168.3,386.1,172.6,382.8,174.1,378.4z"/>
	<path class="st3" d="M368.3,141c0.6-0.3,1.2-0.6,1.8-1c4.8-3,8-8.3,8-14.4c0-9.4-7.6-17-17-17c-3,0-5.9,0.8-8.4,2.2
		c-0.6,0.3-1.1,0.7-1.7,1.1c-4.2,3.1-7,8.1-7,13.7c0,9.4,7.6,17,17,17C363.7,142.7,366.1,142.1,368.3,141z"/>
</g>
<path class="st4" d="M364.6,62.6C324.3,22.2,270.6,0,213.6,0c-57.1,0-110.7,22.2-151,62.6c-5,5-9.8,10.3-14.2,15.7
	c0.6,0.4,1.1,0.8,1.7,1.3C88.8,32.2,147.7,2,213.6,2c116.7,0,211.6,94.9,211.6,211.6s-94.9,211.6-211.6,211.6
	C96.9,425.2,2,330.3,2,213.6c0-38.7,10.5-75,28.7-106.3c-0.6-0.3-1.2-0.7-1.8-1.1C10,138.5,0,175.3,0,213.6
	c0,57,22.2,110.7,62.6,151c40.3,40.3,94,62.6,151,62.6c57,0,110.7-22.2,151-62.6c40.3-40.3,62.6-94,62.6-151S405,102.9,364.6,62.6z"
	/>
<path class="st4" d="M50,79.6c-0.5-0.5-1.1-0.9-1.7-1.3c-2.7-1.9-6-2.9-9.6-2.9c-3,0-5.9,0.8-8.4,2.2c-0.6,0.3-1.1,0.7-1.7,1.1
	c-4.2,3.1-7,8.1-7,13.7c0,5.7,2.8,10.8,7.1,13.8c0.6,0.4,1.2,0.8,1.8,1.1c2.4,1.3,5.1,2,8.1,2c2.6,0,5.1-0.6,7.3-1.6
	c0.6-0.3,1.2-0.6,1.8-1c4.8-3,8-8.3,8-14.4C55.8,87.3,53.5,82.7,50,79.6z"/>
</svg>
