<?xml version="1.0" encoding="utf-8"?>
<!-- Generator: Adobe Illustrator 22.1.0, SVG Export Plug-In . SVG Version: 6.00 Build 0)  -->
<svg version="1.1" id="BACKGROUND_2" xmlns="http://www.w3.org/2000/svg" xmlns:xlink="http://www.w3.org/1999/xlink" x="0px"
	 y="0px" viewBox="0 0 344.9 342.2" style="enable-background:new 0 0 344.9 342.2;" xml:space="preserve">
<style type="text/css">
	.st0{opacity:0.5;fill:#1DF998;}
	.st1{fill:#00A75F;}
	.st2{fill:#00DE7E;}
	.st3{fill:#1DF998;}
	.st4{opacity:0.5;fill:#00CD90;}
</style>
<path class="st0" d="M171.1,0c-25.8,0-50.2,5.7-72.1,16c0.3,0.6,0.7,1.1,1,1.8C121.5,7.6,145.7,2,171.1,2
	c93.2,0,169.1,75.8,169.1,169.1c0,13.9-1.7,27.5-4.9,40.4c0.7,0.1,1.3,0.3,1.9,0.5c3.2-13.1,4.9-26.8,4.9-40.9
	C342.2,76.8,265.4,0,171.1,0z M171.1,340.2C77.9,340.2,2,264.3,2,171.1C2,115.4,29.1,65.9,70.8,35c-0.4-0.5-0.8-1.1-1.1-1.7
	C27.5,64.5,0,114.7,0,171.1c0,94.3,76.8,171.1,171.1,171.1c72.3,0,134.2-45.1,159.3-108.6c-0.6-0.2-1.3-0.4-1.9-0.7
	C303.8,295.6,242.5,340.2,171.1,340.2z"/>
<g>
	<g>
		<path class="st1" d="M165.1,285.4c1.1-2.4,1.1-5.2-0.3-7.7c-2.3-3.9-7.3-5.3-11.2-3l-12.9,7.4c-3.9,2.3-9,0.9-11.2-3
			c-2.3-3.9-0.9-9,3-11.2l30.7-17.7c0.4-0.3,0.7-0.6,1.1-0.8l14.6-8.4c3-2.5,3.9-6.9,1.9-10.4c-2.3-3.9-7.3-5.3-11.2-3l-45.2,26.1
			c-3.9,2.3-9,0.9-11.2-3c-2.3-3.9-0.9-9,3-11.2l15.5-8.9c3.9-2.3,5.3-7.3,3-11.2c-2.3-3.9-7.3-5.3-11.2-3l-15.5,8.9
			c-3.9,2.3-9,0.9-11.2-3c-2.3-3.9-0.9-9,3-11.2l30.7-17.7c0.4-0.3,0.7-0.6,1.1-0.8l8.1-4.7l0.9-0.5c3.9-2.3,5.3-7.3,3-11.2
			c-2.3-3.9-7.3-5.3-11.2-3l-9,5.2c-3.9,2.3-9,0.9-11.2-3c-2.3-3.9-0.9-9,3-11.2l38.8-22.3c3.9-2.3,5.3-7.3,3-11.2
			c-2.3-3.9-7.3-5.3-11.2-3L107,149.9c-3.9,2.3-9,0.9-11.2-3c-2-3.5-1.1-7.9,1.9-10.4c0.4-0.3,0.7-0.6,1.1-0.8l8.1-4.7
			c3-2.5,3.9-6.9,1.9-10.4c-2.3-3.9-7.3-5.3-11.2-3l-38.8,22.3c-1.7,1-3.7,1.3-5.5,1c-4.9,19.2-5.2,39.5-0.3,59.3
			c1.3,5.4,3,10.7,5.1,16c2.1,5.3,4.6,10.5,7.6,15.6c5.5,9.6,12.1,18.1,19.6,25.5c4.1,4.1,8.5,7.9,13.2,11.4
			c16.5,12.3,35.8,20.1,55.9,22.9c0.8,0.1,1.6,0.2,2.3,0.3l5.1-2.9C163.3,288,164.5,286.8,165.1,285.4z"/>
		<path class="st2" d="M201.9,284.6l-11.3,6.5c7.1-1.1,14.1-2.9,21-5.4C209,283.4,205.1,282.8,201.9,284.6z"/>
		<path class="st2" d="M76.9,101.1c-0.8-1.3-1.8-2.3-3.1-3c-5.1,6.8-9.5,14.1-13,21.8l13.1-7.5C77.8,110,79.2,105,76.9,101.1z"/>
		<path class="st2" d="M241.2,254.2c-2-3.6-0.8-8.1,2.7-10.2l8.4-4.8c3.9-2.3,5.3-7.3,3-11.2c-2.3-3.9-7.3-5.3-11.2-3l-12.9,7.4
			c-3.9,2.3-9,0.9-11.2-3c-2.3-3.9-0.9-9,3-11.2l45.2-26.1c3.9-2.3,5.3-7.3,3-11.2c-2.3-3.9-7.3-5.3-11.2-3l-45.2,26.1
			c-3.9,2.3-9,0.9-11.2-3c-2.3-3.9-0.9-9,3-11.2l15.5-8.9c3.9-2.3,5.3-7.3,3-11.2c-2.3-3.9-7.3-5.3-11.2-3l-15.5,8.9
			c-3.9,2.3-9,0.9-11.2-3c-2.3-3.9-0.9-9,3-11.2l38.8-22.3c3.9-2.3,5.3-7.3,3-11.2c-2.3-3.9-7.3-5.3-11.2-3L182,147
			c-3.9,2.3-9,0.9-11.2-3c-2.3-3.9-0.9-9,3-11.2l9-5.2c3.9-2.3,5.3-7.3,3-11.2c-2.3-3.9-7.3-5.3-11.2-3l-9.1,5.2
			c-3.9,2.3-9,0.9-11.2-3c-2.3-3.9-0.9-9,3-11.2L196.2,82c3.9-2.3,5.3-7.3,3-11.2c-2.3-3.9-7.3-5.3-11.2-3l-38.8,22.3
			c-3.9,2.3-9,0.9-11.2-3c-2.3-3.9-0.9-9,3-11.2l23.3-13.4c1-0.6,1.8-1.3,2.5-2.2c1.9-2.5,2.2-6.1,0.5-9c-0.4-0.7-0.8-1.2-1.4-1.8
			c-4.9,0.2-9.8,0.7-14.6,1.5l-14,8c-3.2,1.8-7.2,1-9.5-1.7c-6,2.3-11.8,5-17.5,8.3c-14.7,8.5-27,19.6-36.6,32.3
			c1.2,0.7,2.3,1.7,3.1,3c2.3,3.9,0.9,9-3,11.2l-13.1,7.5c-3.1,6.8-5.7,13.8-7.5,21.1c1.8,0.3,3.8,0,5.5-1l38.8-22.3
			c3.9-2.3,9-0.9,11.2,3c2,3.5,1.1,7.9-1.9,10.4l-8.1,4.7c-0.4,0.2-0.8,0.5-1.1,0.8c-3,2.5-3.9,6.9-1.9,10.4c2.3,3.9,7.3,5.3,11.2,3
			l38.8-22.3c3.9-2.3,9-0.9,11.2,3c2.3,3.9,0.9,9-3,11.2l-38.8,22.3c-3.9,2.3-5.3,7.3-3,11.2c2.3,3.9,7.3,5.3,11.2,3l9-5.2
			c3.9-2.3,9-0.9,11.2,3c2.3,3.9,0.9,9-3,11.2l-0.9,0.5l-8.1,4.7c-0.4,0.2-0.8,0.5-1.1,0.8L99.8,211c-3.9,2.3-5.3,7.3-3,11.2
			c2.3,3.9,7.3,5.3,11.2,3l15.5-8.9c3.9-2.3,9-0.9,11.2,3c2.3,3.9,0.9,9-3,11.2l-15.5,8.9c-3.9,2.3-5.3,7.3-3,11.2
			c2.3,3.9,7.3,5.3,11.2,3l45.2-26.1c3.9-2.3,9-0.9,11.2,3c2,3.5,1.1,7.9-1.9,10.4l-14.6,8.4c-0.4,0.2-0.8,0.5-1.1,0.8l-30.7,17.7
			c-3.9,2.3-5.3,7.3-3,11.2c2.3,3.9,7.3,5.3,11.2,3l12.9-7.4c3.9-2.3,9-0.9,11.2,3c1.4,2.4,1.4,5.3,0.3,7.7
			c-0.7,1.4-1.8,2.7-3.3,3.5l-5.1,2.9c8.1,1,16.2,1.1,24.4,0.4c3.2-0.3,6.3-0.6,9.5-1.2l11.3-6.5c3.2-1.8,7.1-1.3,9.7,1.1
			c6.9-2.4,13.7-5.5,20.2-9.3c12.5-7.2,23.3-16.3,32.1-26.8l-12.5,7.2C247.8,259,243.2,257.7,241.2,254.2z"/>
		<path class="st3" d="M137.4,59.1l14-8c-7.9,1.3-15.8,3.4-23.4,6.3C130.2,60.1,134.2,60.9,137.4,59.1z"/>
		<path class="st3" d="M243.7,73.5c-5-3.7-10.2-7-15.7-9.9c-6.1-3.2-12.4-5.9-18.9-8c-13.8-4.6-28.5-6.6-43.2-6
			c0.5,0.5,1,1.1,1.4,1.8c1.7,2.9,1.4,6.5-0.5,9c-0.6,0.9-1.5,1.6-2.5,2.2l-23.3,13.4c-3.9,2.3-5.3,7.3-3,11.2
			c2.3,3.9,7.3,5.3,11.2,3L188,67.8c3.9-2.3,9-0.9,11.2,3c2.3,3.9,0.9,9-3,11.2l-38.8,22.3c-3.9,2.3-5.3,7.3-3,11.2
			c2.3,3.9,7.3,5.3,11.2,3l9.1-5.2c3.9-2.3,9-0.9,11.2,3c2.3,3.9,0.9,9-3,11.2l-9,5.2c-3.9,2.3-5.3,7.3-3,11.2
			c2.3,3.9,7.3,5.3,11.2,3l38.8-22.3c3.9-2.3,9-0.9,11.2,3c2.3,3.9,0.9,9-3,11.2l-38.8,22.3c-3.9,2.3-5.3,7.3-3,11.2
			c2.3,3.9,7.3,5.3,11.2,3l15.5-8.9c3.9-2.3,9-0.9,11.2,3c2.3,3.9,0.9,9-3,11.2l-15.5,8.9c-3.9,2.3-5.3,7.3-3,11.2
			c2.3,3.9,7.3,5.3,11.2,3l45.2-26.1c3.9-2.3,9-0.9,11.2,3c2.3,3.9,0.9,9-3,11.2L223,218.1c-3.9,2.3-5.3,7.3-3,11.2
			c2.3,3.9,7.3,5.3,11.2,3l12.9-7.4c3.9-2.3,9-0.9,11.2,3c2.3,3.9,0.9,9-3,11.2l-8.4,4.8c-3.6,2-4.8,6.6-2.7,10.2
			c2,3.6,6.6,4.8,10.2,2.7l12.5-7.2c10.8-12.8,18.8-27.6,23.5-43.3c-0.5-2.5,0.2-5.2,1.9-7.1c1.7-7,2.7-14.1,3.1-21.2
			c0.4-6.3,0.3-12.7-0.4-19c-0.4-4.4-1.1-8.8-2.1-13.2c-1.4-6.7-3.4-13.3-6-19.7c-2-5-4.4-10-7.1-14.8c-0.2-0.3-0.3-0.6-0.5-0.9
			C267.9,95.5,256.7,83.2,243.7,73.5z"/>
		<path class="st3" d="M287.4,206.4c0.7-2.4,1.4-4.7,1.9-7.1C287.6,201.2,286.9,203.8,287.4,206.4z"/>
	</g>
	<path class="st4" d="M269.5,229.7c-6.6,3.8-13.3,6.9-20.2,9.3c-6.9,2.4-13.9,4.2-21,5.4c-3.2,0.5-6.3,0.9-9.5,1.2
		c-8.2,0.7-16.3,0.5-24.4-0.4c-0.8-0.1-1.6-0.2-2.3-0.3c-20.1-2.8-39.4-10.6-55.9-22.9c-4.6-3.4-9-7.2-13.2-11.4
		c-7.5-7.4-14.1-16-19.6-25.5c-2.9-5.1-5.5-10.3-7.6-15.6c-2.1-5.3-3.8-10.6-5.1-16c-4.9-19.7-4.6-40.1,0.3-59.3
		c1.8-7,4.2-13.9,7.2-20.4C88.8,80.8,80.6,89,73.8,98c-5.1,6.8-9.5,14.1-13,21.8c-3.1,6.8-5.7,13.8-7.5,21.1
		c-4.9,19.2-5.2,39.5-0.3,59.3c1.3,5.4,3,10.7,5.1,16c2.1,5.3,4.6,10.5,7.6,15.6c5.5,9.6,12.1,18.1,19.6,25.5
		c4.1,4.1,8.5,7.9,13.2,11.4c16.5,12.3,35.8,20.1,55.9,22.9c0.8,0.1,1.6,0.2,2.3,0.3c8.1,1,16.2,1.1,24.4,0.4
		c3.2-0.3,6.3-0.6,9.5-1.2c7.1-1.1,14.1-2.9,21-5.4c6.9-2.4,13.7-5.5,20.2-9.3c12.5-7.2,23.3-16.3,32.1-26.8
		c7.2-8.5,13.1-17.9,17.7-27.9C277.8,224.6,273.7,227.3,269.5,229.7z"/>
</g>
<path class="st0" d="M337.2,212c-0.6-0.2-1.3-0.4-1.9-0.5c-0.5-0.1-1.1-0.1-1.7-0.1c-6.3,0-11.3,5.1-11.3,11.3
	c0,4.4,2.5,8.3,6.2,10.1c0.6,0.3,1.2,0.5,1.9,0.7c1,0.3,2.1,0.5,3.3,0.5c6.3,0,11.3-5.1,11.3-11.3
	C344.9,217.7,341.7,213.5,337.2,212z"/>
<path class="st0" d="M99.9,17.7c-0.3-0.6-0.6-1.2-1-1.8c-3-4.8-8.3-8-14.4-8c-9.4,0-17,7.6-17,17c0,3,0.8,5.9,2.2,8.4
	c0.3,0.6,0.7,1.1,1.1,1.7c3.1,4.2,8.1,7,13.7,7c9.4,0,17-7.6,17-17C101.5,22.4,100.9,19.9,99.9,17.7z"/>
</svg>
