<?xml version="1.0" encoding="iso-8859-1"?>
<!-- Generator: Adobe Illustrator 22.1.0, SVG Export Plug-In . SVG Version: 6.00 Build 0)  -->
<svg version="1.1" id="BACKGROUND_2" xmlns="http://www.w3.org/2000/svg" xmlns:xlink="http://www.w3.org/1999/xlink" x="0px"
	 y="0px" viewBox="0 0 80.147 60.391" style="enable-background:new 0 0 80.147 60.391;" xml:space="preserve">
<g>
	
		<linearGradient id="SVGID_1_" gradientUnits="userSpaceOnUse" x1="0" y1="30.1955" x2="80.1472" y2="30.1955" gradientTransform="matrix(-1 0 0 1 80.1472 0)">
		<stop  offset="0" style="stop-color:#F1C13B"/>
		<stop  offset="1" style="stop-color:#FF1200"/>
	</linearGradient>
	<path style="opacity:0.05;fill:url(#SVGID_1_);" d="M20.336,24.156l42.461,35.012c3.975,2.754,10.211,0.698,13.859-4.566l0.92-1.33
		c3.648-5.265,3.381-11.825-0.594-14.578l-29.695-18.07c-0.529-0.323-1.164,0.221-0.926,0.795l1.051,2.521L0.94,0.077
		C0.281-0.262-0.332,0.601,0.205,1.112l23.816,22.649l-3.133-0.726C20.231,22.883,19.815,23.724,20.336,24.156z"/>
	
		<linearGradient id="SVGID_2_" gradientUnits="userSpaceOnUse" x1="3.052" y1="31.149" x2="72.3933" y2="31.149" gradientTransform="matrix(-1 0 0 1 80.1472 0)">
		<stop  offset="0" style="stop-color:#F1C13B"/>
		<stop  offset="1" style="stop-color:#FF1200"/>
	</linearGradient>
	<path style="opacity:0.05;fill:url(#SVGID_2_);" d="M25.746,25.736l37.131,30.162c3.467,2.401,8.678,0.939,11.578-3.249
		l0.732-1.058c2.902-4.188,2.439-9.58-1.025-11.98l-25.74-15.848c-0.457-0.281-1,0.203-0.773,0.689l0.926,1.991L8.553,5.311
		c-0.56-0.296-1.084,0.445-0.621,0.876L28.75,25.459l-2.524-0.666C25.662,24.643,25.295,25.368,25.746,25.736z"/>
	
		<linearGradient id="SVGID_3_" gradientUnits="userSpaceOnUse" x1="7.7178" y1="35.9397" x2="52.4519" y2="35.9397" gradientTransform="matrix(-1 0 0 1 80.1472 0)">
		<stop  offset="0" style="stop-color:#F1C13B"/>
		<stop  offset="1" style="stop-color:#FF1200"/>
	</linearGradient>
	<path style="fill:url(#SVGID_3_);" d="M39.084,32.59l23.707,19.49c2.236,1.549,5.713,0.435,7.729-2.474l0.508-0.734
		c2.016-2.909,1.836-6.556-0.398-8.104L54.096,30.684c-0.342-0.209-0.752,0.145-0.594,0.514l0.525,1.235L28.303,19.15
		c-0.426-0.219-0.822,0.338-0.475,0.667l13.121,12.411l-1.508-0.359C39.016,31.767,38.746,32.312,39.084,32.59z"/>
	<g style="opacity:0.15;">
		<g>
			<path style="fill:#230753;" d="M63.223,50.633c2.234,1.548,5.711,0.436,7.727-2.475l0.51-0.734
				c0.351-0.507,0.611-1.039,0.83-1.576c-0.191,1.021-0.594,2.063-1.262,3.025l-0.508,0.734c-2.016,2.909-5.492,4.022-7.729,2.474
				L39.336,32.797c-0.4-0.328-0.08-0.972,0.422-0.852l1.033,0.245L63.223,50.633z"/>
			<path style="fill:#230753;" d="M30.027,20.041L41.379,30.78l-2.621-0.624L27.897,19.882c-0.358-0.339,0.051-0.915,0.488-0.688
				L30.027,20.041z"/>
		</g>
	</g>
	<g>
		<g>
			<path style="fill:#FFE973;" d="M69.465,43.233c0.316,0.519,0.645,1.079,0.6,1.677c-0.023,0.293-0.135,0.57-0.246,0.844
				c-0.361,0.896-0.754,1.834-1.529,2.451c-0.226,0.181-0.478,0.328-0.73,0.475c-0.268,0.156-0.537,0.312-0.805,0.467
				c-0.219,0.129-0.439,0.257-0.686,0.332c-0.201,0.063-0.412,0.086-0.623,0.107c-0.629,0.062-1.26,0.097-1.891,0.105
				c-0.314,0.004-0.639,0-0.928-0.119c-0.594-0.247-0.857-0.895-1.06-1.478c-0.119-0.343-0.238-0.687-0.359-1.03
				c-0.211-0.607-0.426-1.232-0.4-1.871c0.023-0.531,0.209-1.041,0.395-1.543c0.189-0.514,0.379-1.027,0.568-1.541
				c0.086-0.23,0.172-0.464,0.32-0.664c0.201-0.273,0.506-0.466,0.828-0.6c0.557-0.231,1.188-0.299,1.785-0.193
				c0.348,0.063,0.682,0.181,1.014,0.299c0.791,0.282,1.584,0.564,2.338,0.93c0.293,0.141,0.676,0.285,0.896,0.524
				C69.164,42.637,69.303,42.969,69.465,43.233z"/>
			<path style="opacity:0.15;fill:#230753;" d="M61.201,43.65c0.189-0.514,0.379-1.027,0.568-1.541
				c0.086-0.23,0.172-0.464,0.32-0.664c0.107-0.146,0.246-0.266,0.398-0.369c-0.023,0.063-0.049,0.123-0.072,0.184
				c-0.189,0.514-0.379,1.027-0.568,1.541c-0.186,0.502-0.373,1.013-0.395,1.543c-0.025,0.64,0.189,1.264,0.4,1.871
				c0.119,0.344,0.24,0.688,0.359,1.031c0.203,0.583,0.467,1.23,1.06,1.476c0.289,0.12,0.613,0.124,0.928,0.119
				c0.631-0.008,1.262-0.043,1.891-0.105c0.209-0.021,0.422-0.045,0.623-0.106c0.244-0.075,0.467-0.204,0.686-0.332
				c0.268-0.155,0.535-0.311,0.805-0.468c0.25-0.146,0.504-0.293,0.73-0.474c0.103-0.083,0.186-0.185,0.277-0.278
				c-0.242,0.426-0.533,0.816-0.924,1.127c-0.226,0.181-0.478,0.328-0.73,0.475c-0.268,0.156-0.537,0.312-0.805,0.467
				c-0.219,0.129-0.439,0.257-0.686,0.332c-0.201,0.063-0.412,0.086-0.623,0.107c-0.629,0.062-1.26,0.097-1.891,0.105
				c-0.314,0.004-0.639,0-0.928-0.119c-0.594-0.247-0.857-0.895-1.06-1.478c-0.119-0.343-0.238-0.687-0.359-1.03
				c-0.211-0.607-0.426-1.232-0.4-1.871C60.83,44.662,61.016,44.151,61.201,43.65z"/>
			<path style="fill:#E7CD64;" d="M64.158,41.637c0.041,0.014,0.084,0.031,0.113,0.063c0.033,0.038,0.045,0.091,0.053,0.142
				c0.053,0.317,0.049,0.642,0.047,0.964c-0.002,0.097-0.004,0.195-0.037,0.286c-0.021,0.055-0.057,0.104-0.096,0.149
				c-0.197,0.226-0.518,0.3-0.818,0.298c-0.227,0-0.451-0.037-0.666-0.109c-0.201-0.066-0.408-0.179-0.488-0.375
				c-0.059-0.145-0.037-0.311,0.023-0.453C62.565,41.974,63.479,41.417,64.158,41.637z"/>
			<path style="fill:#E7CD64;" d="M65.617,45.217c0.137,0.17,0.223,0.393,0.18,0.607c-0.018,0.088-0.063,0.177-0.141,0.221
				c-0.08,0.045-0.182,0.034-0.27,0.006c-0.361-0.117-0.588-0.488-0.936-0.642c-0.033-0.015-0.066-0.027-0.092-0.052
				c-0.033-0.035-0.043-0.088-0.041-0.137c0.002-0.137,0.068-0.266,0.15-0.375c0.07-0.092,0.156-0.176,0.264-0.215
				c0.213-0.074,0.275,0.071,0.41,0.18C65.309,44.943,65.484,45.049,65.617,45.217z"/>
			<path style="fill:#E7CD64;" d="M63.658,46.926c0.041,0.028,0.084,0.058,0.109,0.1c0.029,0.051,0.031,0.111,0.033,0.169
				c0.002,0.064,0.002,0.134-0.035,0.187c-0.027,0.039-0.07,0.063-0.111,0.085c-0.258,0.14-0.516,0.278-0.773,0.419
				c-0.07,0.037-0.145,0.076-0.225,0.075c-0.092-0.002-0.176-0.06-0.225-0.136c-0.051-0.074-0.072-0.167-0.08-0.258
				c-0.025-0.367,0.164-0.711,0.348-1.03c0.033-0.058,0.068-0.118,0.127-0.151c0.166-0.094,0.274,0.047,0.369,0.152
				C63.328,46.684,63.496,46.812,63.658,46.926z"/>
			<path style="fill:#E7CD64;" d="M62.76,44.969c0.037,0.039,0.074,0.08,0.098,0.128c0.023,0.049,0.031,0.108,0.01,0.157
				c-0.287,0.129-0.606,0.188-0.92,0.167c-0.045-0.159,0.051-0.322,0.154-0.45c0.082-0.102,0.186-0.209,0.313-0.248
				C62.567,44.677,62.664,44.865,62.76,44.969z"/>
			<path style="fill:#E7CD64;" d="M67.887,46.849c0.051,0.234-0.094,0.496-0.318,0.576c-0.074,0.026-0.154,0.035-0.232,0.043
				c-0.15,0.017-0.303,0.033-0.455,0.049c-0.125,0.014-0.256,0.028-0.363,0.094c-0.098,0.057-0.168,0.149-0.234,0.239
				c-0.07,0.093-0.141,0.186-0.211,0.279c-0.143,0.189-0.287,0.381-0.477,0.522c-0.191,0.141-0.436,0.227-0.666,0.177
				c-0.055-0.138,0.01-0.292,0.078-0.424c0.273-0.534,0.656-1.057,1.219-1.269c0.115-0.044,0.238-0.074,0.352-0.125
				c0.113-0.051,0.223-0.129,0.277-0.24c0.049-0.095,0.055-0.205,0.064-0.311c0.01-0.106,0.025-0.218,0.092-0.303
				c0.188-0.242,0.35,0.018,0.477,0.15C67.643,46.469,67.836,46.621,67.887,46.849z"/>
			<path style="fill:#E7CD64;" d="M67.887,45.29c0.018-0.056,0.07-0.091,0.125-0.114c0.236-0.104,0.537-0.036,0.705,0.159
				c0.027,0.03,0.051,0.064,0.059,0.104c0.01,0.057-0.016,0.116-0.055,0.157c-0.041,0.042-0.092,0.069-0.145,0.094
				c-0.086,0.04-0.174,0.074-0.266,0.102C67.961,45.898,67.787,45.617,67.887,45.29z"/>
			<path style="fill:#E7CD64;" d="M65.262,43.334c-0.035-0.019-0.072-0.037-0.109-0.055c-0.02-0.01-0.039-0.021-0.053-0.037
				c-0.125-0.15,0.104-0.352,0.231-0.398c0.141-0.053,0.238,0.014,0.32,0.125c0.068,0.09,0.264,0.361,0.176,0.478
				C65.727,43.579,65.365,43.387,65.262,43.334z"/>
			<path style="fill:#E7CD64;" d="M67.74,42.525c0.176,0.119,0.354,0.238,0.504,0.39c0.152,0.155,0.271,0.341,0.352,0.544
				c0.09,0.232,0.119,0.516-0.025,0.72c-0.1,0.14-0.27,0.222-0.439,0.238c-0.17,0.017-0.344-0.024-0.5-0.093
				c-0.088-0.039-0.176-0.086-0.238-0.159c-0.065-0.072-0.102-0.173-0.08-0.267c0.264,0.033,0.529,0.059,0.795,0.078
				c0.031-0.103,0-0.215-0.059-0.305c-0.057-0.09-0.137-0.162-0.215-0.235c-0.229-0.213-0.443-0.442-0.639-0.687
				c-0.076-0.096-0.152-0.199-0.168-0.32c-0.018-0.146,0.076-0.297,0.227-0.231C67.424,42.271,67.588,42.422,67.74,42.525z"/>
			<g style="opacity:0.15;">
				<g>
					<path style="fill:#230753;" d="M67.594,44.165c0.064,0.073,0.15,0.12,0.24,0.159c0.104,0.045,0.217,0.07,0.33,0.083
						c-0.012,0.001-0.021,0.009-0.033,0.01c-0.17,0.017-0.344-0.024-0.5-0.093c-0.088-0.039-0.176-0.086-0.238-0.159
						c-0.065-0.072-0.102-0.173-0.08-0.267c0.068,0.008,0.137,0.012,0.203,0.02C67.504,44.006,67.535,44.097,67.594,44.165z"/>
					<path style="fill:#230753;" d="M67.254,42.198c0.016,0.007,0.029,0.019,0.043,0.026c-0.049,0.046-0.076,0.125-0.066,0.205
						c0.016,0.121,0.092,0.225,0.168,0.32c0.195,0.244,0.408,0.474,0.639,0.687c0.078,0.073,0.158,0.146,0.215,0.235
						c0.059,0.09,0.09,0.203,0.059,0.305c-0.068-0.006-0.135-0.015-0.203-0.02c0.021-0.098-0.004-0.201-0.059-0.285
						c-0.057-0.09-0.137-0.162-0.215-0.235c-0.229-0.213-0.443-0.442-0.639-0.687c-0.076-0.096-0.152-0.199-0.168-0.32
						C67.012,42.284,67.104,42.133,67.254,42.198z"/>
				</g>
			</g>
			<path style="opacity:0.15;fill:#230753;" d="M64.469,44.846c0.029-0.039,0.076-0.058,0.113-0.091
				c-0.02,0.052-0.037,0.104-0.037,0.158c0,0.049,0.008,0.101,0.043,0.136c0.023,0.025,0.057,0.038,0.09,0.053
				c0.348,0.153,0.574,0.523,0.938,0.641c0.057,0.02,0.117,0.023,0.178,0.016c-0.002,0.021,0.008,0.044,0.004,0.066
				c-0.018,0.088-0.063,0.177-0.141,0.221c-0.08,0.045-0.182,0.034-0.27,0.006c-0.361-0.117-0.588-0.488-0.936-0.642
				c-0.033-0.015-0.066-0.027-0.092-0.052c-0.033-0.035-0.043-0.088-0.041-0.137C64.32,45.084,64.387,44.955,64.469,44.846z"/>
			<path style="opacity:0.15;fill:#230753;" d="M62.289,42.601c0.072-0.164,0.193-0.322,0.338-0.465
				c-0.033,0.054-0.086,0.102-0.109,0.156c-0.063,0.143-0.084,0.31-0.025,0.453c0.08,0.197,0.287,0.31,0.488,0.376
				c0.215,0.071,0.441,0.108,0.666,0.109c0.252,0.001,0.502-0.073,0.697-0.222c-0.006,0.027,0,0.057-0.01,0.082
				c-0.021,0.055-0.057,0.104-0.096,0.149c-0.197,0.226-0.518,0.3-0.818,0.298c-0.227-0.001-0.451-0.037-0.666-0.109
				c-0.201-0.066-0.408-0.179-0.488-0.375C62.207,42.91,62.227,42.744,62.289,42.601z"/>
			<path style="opacity:0.15;fill:#230753;" d="M62.699,46.536c0.033-0.058,0.068-0.118,0.127-0.151
				c0.006-0.004,0.01-0.002,0.016-0.004c-0.152,0.275-0.285,0.568-0.262,0.877c0.006,0.092,0.027,0.184,0.078,0.259
				c0.051,0.075,0.135,0.133,0.225,0.135c0.08,0.002,0.154-0.037,0.225-0.075c0.23-0.125,0.461-0.25,0.691-0.374
				c0.002,0.062,0.002,0.128-0.033,0.179c-0.027,0.039-0.07,0.063-0.111,0.085c-0.258,0.14-0.516,0.278-0.773,0.419
				c-0.07,0.037-0.145,0.076-0.225,0.074c-0.092-0.002-0.176-0.059-0.225-0.135c-0.051-0.075-0.072-0.167-0.08-0.258
				C62.326,47.199,62.516,46.855,62.699,46.536z"/>
			<path style="opacity:0.15;fill:#230753;" d="M62.102,44.971c0.031-0.039,0.066-0.074,0.104-0.11
				c-0.037,0.081-0.055,0.167-0.029,0.253c0.213,0.014,0.426-0.022,0.635-0.08c0.016,0.021,0.035,0.039,0.047,0.063
				c0.023,0.049,0.031,0.108,0.01,0.157c-0.287,0.129-0.606,0.188-0.92,0.167C61.902,45.262,61.998,45.098,62.102,44.971z"/>
			<g style="opacity:0.15;">
				<g>
					<path style="fill:#230753;" d="M67.147,46.152c-0.01,0.106-0.016,0.217-0.063,0.312c-0.041,0.08-0.123,0.124-0.201,0.173
						c0.012-0.06,0.031-0.116,0.037-0.176c0.01-0.106,0.025-0.218,0.092-0.303c0.057-0.072,0.109-0.092,0.16-0.091
						C67.168,46.097,67.149,46.123,67.147,46.152z"/>
					<path style="fill:#230753;" d="M65.008,48.405c0.119-0.233,0.264-0.46,0.432-0.663c-0.074,0.115-0.143,0.234-0.205,0.355
						c-0.068,0.131-0.131,0.285-0.078,0.423c0.232,0.051,0.477-0.036,0.666-0.177c0.189-0.141,0.334-0.333,0.477-0.521
						c0.07-0.094,0.141-0.187,0.211-0.279c0.068-0.09,0.139-0.183,0.234-0.24c0.109-0.064,0.238-0.08,0.365-0.094
						c0.15-0.016,0.303-0.031,0.455-0.048c0.078-0.009,0.156-0.017,0.23-0.044c0.023-0.008,0.035-0.037,0.057-0.049
						c-0.041,0.158-0.129,0.303-0.283,0.357c-0.074,0.026-0.154,0.035-0.232,0.043c-0.15,0.017-0.303,0.033-0.455,0.049
						c-0.125,0.014-0.256,0.028-0.363,0.094c-0.098,0.057-0.168,0.149-0.234,0.239c-0.07,0.093-0.141,0.186-0.211,0.279
						c-0.143,0.189-0.287,0.381-0.477,0.522c-0.191,0.141-0.436,0.227-0.666,0.177C64.875,48.691,64.94,48.537,65.008,48.405z"/>
				</g>
			</g>
			<path style="opacity:0.15;fill:#230753;" d="M67.887,45.29c0.018-0.056,0.07-0.091,0.125-0.114c0.025-0.012,0.055,0,0.082-0.008
				c0.006,0.235,0.164,0.4,0.445,0.314c0.072-0.021,0.145-0.052,0.215-0.082c0.006,0.014,0.018,0.023,0.021,0.038
				c0.01,0.057-0.016,0.116-0.055,0.157c-0.041,0.042-0.092,0.069-0.145,0.094c-0.086,0.04-0.174,0.074-0.266,0.102
				C67.961,45.898,67.787,45.617,67.887,45.29z"/>
			<path style="opacity:0.15;fill:#230753;" d="M65.305,42.857c0.004,0.025,0.002,0.053,0.023,0.077
				c0.014,0.017,0.033,0.026,0.051,0.036c0.037,0.018,0.074,0.037,0.109,0.055c0.053,0.026,0.166,0.086,0.281,0.125
				c0.061,0.107,0.109,0.228,0.057,0.296c-0.1,0.133-0.461-0.06-0.564-0.112c-0.035-0.019-0.072-0.037-0.109-0.055
				c-0.02-0.01-0.039-0.021-0.053-0.037C64.983,43.099,65.176,42.918,65.305,42.857z"/>
		</g>
	</g>
</g>
</svg>
