<?xml version="1.0" encoding="utf-8"?>
<!-- Generator: Adobe Illustrator 22.1.0, SVG Export Plug-In . SVG Version: 6.00 Build 0)  -->
<svg version="1.1" id="BACKGROUND_2" xmlns="http://www.w3.org/2000/svg" xmlns:xlink="http://www.w3.org/1999/xlink" x="0px"
	 y="0px" viewBox="0 0 80.1 60.4" style="enable-background:new 0 0 80.1 60.4;" xml:space="preserve">
<style type="text/css">
	.st0{opacity:5.000000e-02;fill:url(#SVGID_1_);}
	.st1{opacity:5.000000e-02;fill:url(#SVGID_2_);}
	.st2{fill:url(#SVGID_3_);}
	.st3{opacity:0.15;}
	.st4{fill:#230753;}
	.st5{fill:#FFE973;}
	.st6{opacity:0.15;fill:#230753;}
	.st7{fill:#E7CD64;}
</style>
<g>
	<linearGradient id="SVGID_1_" gradientUnits="userSpaceOnUse" x1="0" y1="30.1955" x2="80.1472" y2="30.1955">
		<stop  offset="0" style="stop-color:#F1C13B"/>
		<stop  offset="1" style="stop-color:#FF1200"/>
	</linearGradient>
	<path class="st0" d="M59.8,24.2l-42.5,35c-4,2.8-10.2,0.7-13.9-4.6l-0.9-1.3C-1.1,48-0.8,41.4,3.2,38.7l29.7-18.1
		c0.5-0.3,1.2,0.2,0.9,0.8l-1.1,2.5L79.2,0.1c0.7-0.3,1.3,0.5,0.7,1L56.1,23.8l3.1-0.7C59.9,22.9,60.3,23.7,59.8,24.2z"/>
	<linearGradient id="SVGID_2_" gradientUnits="userSpaceOnUse" x1="3.052" y1="31.149" x2="72.3933" y2="31.149">
		<stop  offset="0" style="stop-color:#F1C13B"/>
		<stop  offset="1" style="stop-color:#FF1200"/>
	</linearGradient>
	<path class="st1" d="M54.4,25.7L17.3,55.9c-3.5,2.4-8.7,0.9-11.6-3.2L5,51.6c-2.9-4.2-2.4-9.6,1-12l25.7-15.8
		c0.5-0.3,1,0.2,0.8,0.7l-0.9,2l40-21.1c0.6-0.3,1.1,0.4,0.6,0.9L51.4,25.5l2.5-0.7C54.5,24.6,54.9,25.4,54.4,25.7z"/>
	<linearGradient id="SVGID_3_" gradientUnits="userSpaceOnUse" x1="7.7178" y1="35.9397" x2="52.4519" y2="35.9397">
		<stop  offset="0" style="stop-color:#F1C13B"/>
		<stop  offset="1" style="stop-color:#FF1200"/>
	</linearGradient>
	<path class="st2" d="M41.1,32.6L17.4,52.1c-2.2,1.5-5.7,0.4-7.7-2.5l-0.5-0.7c-2-2.9-1.8-6.6,0.4-8.1l16.5-10.1
		c0.3-0.2,0.8,0.1,0.6,0.5l-0.5,1.2l25.7-13.3c0.4-0.2,0.8,0.3,0.5,0.7L39.2,32.2l1.5-0.4C41.1,31.8,41.4,32.3,41.1,32.6z"/>
	<g class="st3">
		<g>
			<path class="st4" d="M16.9,50.6c-2.2,1.5-5.7,0.4-7.7-2.5l-0.5-0.7c-0.4-0.5-0.6-1-0.8-1.6c0.2,1,0.6,2.1,1.3,3l0.5,0.7
				c2,2.9,5.5,4,7.7,2.5l23.5-19.3c0.4-0.3,0.1-1-0.4-0.9l-1,0.2L16.9,50.6z"/>
			<path class="st4" d="M50.1,20L38.8,30.8l2.6-0.6l10.9-10.3c0.4-0.3-0.1-0.9-0.5-0.7L50.1,20z"/>
		</g>
	</g>
	<g>
		<g>
			<path class="st5" d="M10.7,43.2c-0.3,0.5-0.6,1.1-0.6,1.7c0,0.3,0.1,0.6,0.2,0.8c0.4,0.9,0.8,1.8,1.5,2.5
				c0.2,0.2,0.5,0.3,0.7,0.5c0.3,0.2,0.5,0.3,0.8,0.5c0.2,0.1,0.4,0.3,0.7,0.3c0.2,0.1,0.4,0.1,0.6,0.1c0.6,0.1,1.3,0.1,1.9,0.1
				c0.3,0,0.6,0,0.9-0.1c0.6-0.2,0.9-0.9,1.1-1.5c0.1-0.3,0.2-0.7,0.4-1c0.2-0.6,0.4-1.2,0.4-1.9c0-0.5-0.2-1-0.4-1.5
				c-0.2-0.5-0.4-1-0.6-1.5c-0.1-0.2-0.2-0.5-0.3-0.7c-0.2-0.3-0.5-0.5-0.8-0.6c-0.6-0.2-1.2-0.3-1.8-0.2c-0.3,0.1-0.7,0.2-1,0.3
				c-0.8,0.3-1.6,0.6-2.3,0.9c-0.3,0.1-0.7,0.3-0.9,0.5C11,42.6,10.8,43,10.7,43.2z"/>
			<path class="st6" d="M18.9,43.7c-0.2-0.5-0.4-1-0.6-1.5c-0.1-0.2-0.2-0.5-0.3-0.7c-0.1-0.1-0.2-0.3-0.4-0.4c0,0.1,0,0.1,0.1,0.2
				c0.2,0.5,0.4,1,0.6,1.5c0.2,0.5,0.4,1,0.4,1.5c0,0.6-0.2,1.3-0.4,1.9c-0.1,0.3-0.2,0.7-0.4,1c-0.2,0.6-0.5,1.2-1.1,1.5
				c-0.3,0.1-0.6,0.1-0.9,0.1c-0.6,0-1.3,0-1.9-0.1c-0.2,0-0.4,0-0.6-0.1c-0.2-0.1-0.5-0.2-0.7-0.3c-0.3-0.2-0.5-0.3-0.8-0.5
				c-0.3-0.1-0.5-0.3-0.7-0.5c-0.1-0.1-0.2-0.2-0.3-0.3c0.2,0.4,0.5,0.8,0.9,1.1c0.2,0.2,0.5,0.3,0.7,0.5c0.3,0.2,0.5,0.3,0.8,0.5
				c0.2,0.1,0.4,0.3,0.7,0.3c0.2,0.1,0.4,0.1,0.6,0.1c0.6,0.1,1.3,0.1,1.9,0.1c0.3,0,0.6,0,0.9-0.1c0.6-0.2,0.9-0.9,1.1-1.5
				c0.1-0.3,0.2-0.7,0.4-1c0.2-0.6,0.4-1.2,0.4-1.9C19.3,44.7,19.1,44.2,18.9,43.7z"/>
			<path class="st7" d="M16,41.6c0,0-0.1,0-0.1,0.1c0,0,0,0.1-0.1,0.1c-0.1,0.3,0,0.6,0,1c0,0.1,0,0.2,0,0.3c0,0.1,0.1,0.1,0.1,0.1
				c0.2,0.2,0.5,0.3,0.8,0.3c0.2,0,0.5,0,0.7-0.1c0.2-0.1,0.4-0.2,0.5-0.4c0.1-0.1,0-0.3,0-0.5C17.6,42,16.7,41.4,16,41.6z"/>
			<path class="st7" d="M14.5,45.2c-0.1,0.2-0.2,0.4-0.2,0.6c0,0.1,0.1,0.2,0.1,0.2c0.1,0,0.2,0,0.3,0c0.4-0.1,0.6-0.5,0.9-0.6
				c0,0,0.1,0,0.1-0.1c0,0,0-0.1,0-0.1c0-0.1-0.1-0.3-0.2-0.4c-0.1-0.1-0.2-0.2-0.3-0.2c-0.2-0.1-0.3,0.1-0.4,0.2
				C14.8,44.9,14.7,45,14.5,45.2z"/>
			<path class="st7" d="M16.5,46.9c0,0-0.1,0.1-0.1,0.1c0,0.1,0,0.1,0,0.2c0,0.1,0,0.1,0,0.2c0,0,0.1,0.1,0.1,0.1
				c0.3,0.1,0.5,0.3,0.8,0.4c0.1,0,0.1,0.1,0.2,0.1c0.1,0,0.2-0.1,0.2-0.1c0.1-0.1,0.1-0.2,0.1-0.3c0-0.4-0.2-0.7-0.3-1
				c0-0.1-0.1-0.1-0.1-0.2c-0.2-0.1-0.3,0-0.4,0.2C16.8,46.7,16.7,46.8,16.5,46.9z"/>
			<path class="st7" d="M17.4,45c0,0-0.1,0.1-0.1,0.1c0,0,0,0.1,0,0.2c0.3,0.1,0.6,0.2,0.9,0.2c0-0.2-0.1-0.3-0.2-0.5
				c-0.1-0.1-0.2-0.2-0.3-0.2C17.6,44.7,17.5,44.9,17.4,45z"/>
			<path class="st7" d="M12.3,46.8c-0.1,0.2,0.1,0.5,0.3,0.6c0.1,0,0.2,0,0.2,0c0.2,0,0.3,0,0.5,0c0.1,0,0.3,0,0.4,0.1
				c0.1,0.1,0.2,0.1,0.2,0.2c0.1,0.1,0.1,0.2,0.2,0.3c0.1,0.2,0.3,0.4,0.5,0.5c0.2,0.1,0.4,0.2,0.7,0.2c0.1-0.1,0-0.3-0.1-0.4
				c-0.3-0.5-0.7-1.1-1.2-1.3c-0.1,0-0.2-0.1-0.4-0.1s-0.2-0.1-0.3-0.2c0-0.1-0.1-0.2-0.1-0.3c0-0.1,0-0.2-0.1-0.3
				c-0.2-0.2-0.3,0-0.5,0.2C12.5,46.5,12.3,46.6,12.3,46.8z"/>
			<path class="st7" d="M12.3,45.3c0-0.1-0.1-0.1-0.1-0.1c-0.2-0.1-0.5,0-0.7,0.2c0,0-0.1,0.1-0.1,0.1c0,0.1,0,0.1,0.1,0.2
				c0,0,0.1,0.1,0.1,0.1c0.1,0,0.2,0.1,0.3,0.1C12.2,45.9,12.4,45.6,12.3,45.3z"/>
			<path class="st7" d="M14.9,43.3c0,0,0.1,0,0.1-0.1c0,0,0,0,0.1,0c0.1-0.2-0.1-0.4-0.2-0.4c-0.1-0.1-0.2,0-0.3,0.1
				c-0.1,0.1-0.3,0.4-0.2,0.5C14.4,43.6,14.8,43.4,14.9,43.3z"/>
			<path class="st7" d="M12.4,42.5c-0.2,0.1-0.4,0.2-0.5,0.4c-0.2,0.2-0.3,0.3-0.4,0.5c-0.1,0.2-0.1,0.5,0,0.7
				c0.1,0.1,0.3,0.2,0.4,0.2c0.2,0,0.3,0,0.5-0.1c0.1,0,0.2-0.1,0.2-0.2c0.1-0.1,0.1-0.2,0.1-0.3c-0.3,0-0.5,0.1-0.8,0.1
				c0-0.1,0-0.2,0.1-0.3c0.1-0.1,0.1-0.2,0.2-0.2c0.2-0.2,0.4-0.4,0.6-0.7c0.1-0.1,0.2-0.2,0.2-0.3c0-0.1-0.1-0.3-0.2-0.2
				C12.7,42.3,12.6,42.4,12.4,42.5z"/>
			<g class="st3">
				<g>
					<path class="st4" d="M12.6,44.2c-0.1,0.1-0.2,0.1-0.2,0.2c-0.1,0-0.2,0.1-0.3,0.1c0,0,0,0,0,0c0.2,0,0.3,0,0.5-0.1
						c0.1,0,0.2-0.1,0.2-0.2c0.1-0.1,0.1-0.2,0.1-0.3c-0.1,0-0.1,0-0.2,0C12.6,44,12.6,44.1,12.6,44.2z"/>
					<path class="st4" d="M12.9,42.2C12.9,42.2,12.9,42.2,12.9,42.2c0,0.1,0,0.2,0,0.2c0,0.1-0.1,0.2-0.2,0.3
						c-0.2,0.2-0.4,0.5-0.6,0.7c-0.1,0.1-0.2,0.1-0.2,0.2c-0.1,0.1-0.1,0.2-0.1,0.3c0.1,0,0.1,0,0.2,0c0-0.1,0-0.2,0.1-0.3
						c0.1-0.1,0.1-0.2,0.2-0.2c0.2-0.2,0.4-0.4,0.6-0.7c0.1-0.1,0.2-0.2,0.2-0.3C13.1,42.3,13,42.1,12.9,42.2z"/>
				</g>
			</g>
			<path class="st6" d="M15.7,44.8c0,0-0.1-0.1-0.1-0.1C15.6,44.8,15.6,44.9,15.7,44.8C15.6,45,15.6,45,15.6,45c0,0-0.1,0-0.1,0.1
				c-0.3,0.2-0.6,0.5-0.9,0.6c-0.1,0-0.1,0-0.2,0c0,0,0,0,0,0.1c0,0.1,0.1,0.2,0.1,0.2c0.1,0,0.2,0,0.3,0c0.4-0.1,0.6-0.5,0.9-0.6
				c0,0,0.1,0,0.1-0.1c0,0,0-0.1,0-0.1C15.8,45.1,15.8,45,15.7,44.8z"/>
			<path class="st6" d="M17.9,42.6c-0.1-0.2-0.2-0.3-0.3-0.5c0,0.1,0.1,0.1,0.1,0.2c0.1,0.1,0.1,0.3,0,0.5c-0.1,0.2-0.3,0.3-0.5,0.4
				c-0.2,0.1-0.4,0.1-0.7,0.1c-0.3,0-0.5-0.1-0.7-0.2c0,0,0,0.1,0,0.1c0,0.1,0.1,0.1,0.1,0.1c0.2,0.2,0.5,0.3,0.8,0.3
				c0.2,0,0.5,0,0.7-0.1c0.2-0.1,0.4-0.2,0.5-0.4C17.9,42.9,17.9,42.7,17.9,42.6z"/>
			<path class="st6" d="M17.4,46.5c0-0.1-0.1-0.1-0.1-0.2c0,0,0,0,0,0c0.2,0.3,0.3,0.6,0.3,0.9c0,0.1,0,0.2-0.1,0.3
				c-0.1,0.1-0.1,0.1-0.2,0.1c-0.1,0-0.2,0-0.2-0.1c-0.2-0.1-0.5-0.3-0.7-0.4c0,0.1,0,0.1,0,0.2c0,0,0.1,0.1,0.1,0.1
				c0.3,0.1,0.5,0.3,0.8,0.4c0.1,0,0.1,0.1,0.2,0.1c0.1,0,0.2-0.1,0.2-0.1c0.1-0.1,0.1-0.2,0.1-0.3C17.8,47.2,17.6,46.9,17.4,46.5z"
				/>
			<path class="st6" d="M18,45c0,0-0.1-0.1-0.1-0.1c0,0.1,0.1,0.2,0,0.3c-0.2,0-0.4,0-0.6-0.1c0,0,0,0,0,0.1c0,0,0,0.1,0,0.2
				c0.3,0.1,0.6,0.2,0.9,0.2C18.2,45.3,18.1,45.1,18,45z"/>
			<g class="st3">
				<g>
					<path class="st4" d="M13,46.2c0,0.1,0,0.2,0.1,0.3c0,0.1,0.1,0.1,0.2,0.2c0-0.1,0-0.1,0-0.2c0-0.1,0-0.2-0.1-0.3
						C13.1,46.1,13,46.1,13,46.2C13,46.1,13,46.1,13,46.2z"/>
					<path class="st4" d="M15.1,48.4c-0.1-0.2-0.3-0.5-0.4-0.7c0.1,0.1,0.1,0.2,0.2,0.4c0.1,0.1,0.1,0.3,0.1,0.4
						c-0.2,0.1-0.5,0-0.7-0.2c-0.2-0.1-0.3-0.3-0.5-0.5c-0.1-0.1-0.1-0.2-0.2-0.3c-0.1-0.1-0.1-0.2-0.2-0.2
						c-0.1-0.1-0.2-0.1-0.4-0.1c-0.2,0-0.3,0-0.5,0c-0.1,0-0.2,0-0.2,0c0,0,0,0-0.1,0c0,0.2,0.1,0.3,0.3,0.4c0.1,0,0.2,0,0.2,0
						c0.2,0,0.3,0,0.5,0c0.1,0,0.3,0,0.4,0.1c0.1,0.1,0.2,0.1,0.2,0.2c0.1,0.1,0.1,0.2,0.2,0.3c0.1,0.2,0.3,0.4,0.5,0.5
						c0.2,0.1,0.4,0.2,0.7,0.2C15.3,48.7,15.2,48.5,15.1,48.4z"/>
				</g>
			</g>
			<path class="st6" d="M12.3,45.3c0-0.1-0.1-0.1-0.1-0.1c0,0-0.1,0-0.1,0c0,0.2-0.2,0.4-0.4,0.3c-0.1,0-0.1-0.1-0.2-0.1
				c0,0,0,0,0,0c0,0.1,0,0.1,0.1,0.2c0,0,0.1,0.1,0.1,0.1c0.1,0,0.2,0.1,0.3,0.1C12.2,45.9,12.4,45.6,12.3,45.3z"/>
			<path class="st6" d="M14.8,42.9C14.8,42.9,14.8,42.9,14.8,42.9c0,0.1-0.1,0.1-0.1,0.1c0,0-0.1,0-0.1,0.1c-0.1,0-0.2,0.1-0.3,0.1
				c-0.1,0.1-0.1,0.2-0.1,0.3c0.1,0.1,0.5-0.1,0.6-0.1c0,0,0.1,0,0.1-0.1c0,0,0,0,0.1,0C15.2,43.1,15,42.9,14.8,42.9z"/>
		</g>
	</g>
</g>
</svg>
