<?xml version="1.0" encoding="iso-8859-1"?>
<!-- Generator: Adobe Illustrator 22.1.0, SVG Export Plug-In . SVG Version: 6.00 Build 0)  -->
<svg version="1.1" id="BACKGROUND_2" xmlns="http://www.w3.org/2000/svg" xmlns:xlink="http://www.w3.org/1999/xlink" x="0px"
	 y="0px" viewBox="0 0 82.4 82.401" style="enable-background:new 0 0 82.4 82.401;" xml:space="preserve">
<g>
	<linearGradient id="SVGID_1_" gradientUnits="userSpaceOnUse" x1="0" y1="41.2005" x2="82.4004" y2="41.2005">
		<stop  offset="0" style="stop-color:#E0DFDD"/>
		<stop  offset="1" style="stop-color:#C9C9C7"/>
	</linearGradient>
	<path style="fill:url(#SVGID_1_);" d="M82.4,41.2c0,22.755-18.445,41.201-41.199,41.201C18.445,82.401,0,63.955,0,41.2
		C0,18.446,18.445,0,41.201,0C63.955,0,82.4,18.446,82.4,41.2z"/>
	<g>
		<path style="opacity:0.15;fill:#230753;" d="M46.043,72.506c-6.021,3.446-12.998,5.417-20.432,5.417
			c-1.137,0-2.262-0.048-3.373-0.138c5.676,2.947,12.125,4.615,18.963,4.615c4.865,0,9.531-0.846,13.863-2.395
			C51.338,78.496,48.189,75.854,46.043,72.506z"/>
		<path style="opacity:0.15;fill:#230753;" d="M80.125,54.729C81.598,50.491,82.4,45.94,82.4,41.2
			c0-21.618-16.65-39.346-37.828-41.062C57.785,7,66.811,20.807,66.811,36.723c0,2.215-0.176,4.389-0.514,6.51
			C72.564,44.56,77.717,48.936,80.125,54.729z"/>
		<path style="fill:#BFBFBF;" d="M65.861,45.545c-1.15-0.248-2.342-0.381-3.566-0.381c-9.346,0-16.949,7.604-16.949,16.951
			c0,3.375,0.994,6.521,2.701,9.165c2.353,3.644,6.06,6.33,10.408,7.341c8.992-4.152,16.236-11.451,20.314-20.485
			C77.25,51.843,72.213,46.911,65.861,45.545z"/>
		<g>
			<path style="fill:#BFBFBF;" d="M50.688,74.425c2.145,2.022,4.801,3.507,7.768,4.196c0.18-0.082,0.355-0.176,0.535-0.262
				c-0.246-0.041-0.496-0.066-0.736-0.118C55.396,77.628,52.813,76.284,50.688,74.425z"/>
			<path style="opacity:0.15;fill:#230753;" d="M70.957,47.428c0.061,0.076,0.111,0.158,0.17,0.235
				c0.654,0.401,1.279,0.847,1.873,1.332C72.354,48.43,71.682,47.895,70.957,47.428z"/>
			<path style="opacity:0.15;fill:#230753;" d="M48.834,72.379c-0.08-0.049-0.166-0.091-0.246-0.143
				c0.633,0.792,1.338,1.521,2.1,2.188C50.018,73.794,49.395,73.114,48.834,72.379z"/>
			<path style="opacity:0.15;fill:#230753;" d="M78.77,58.136c-0.4-2.248-1.395-3.878-2.59-5.728
				c-0.85-1.316-2.008-2.386-3.18-3.413c-0.594-0.485-1.219-0.931-1.873-1.332c0.275,0.361,0.549,0.727,0.797,1.11
				c1.707,2.645,2.703,5.789,2.703,9.165c0,9.347-7.605,16.95-16.951,16.95c-1.225,0-2.416-0.133-3.566-0.38
				c-1.897-0.407-3.672-1.144-5.275-2.13c0.561,0.734,1.184,1.414,1.854,2.046c2.125,1.858,4.709,3.202,7.566,3.816
				c0.24,0.052,0.49,0.077,0.736,0.118C67.543,74.258,74.732,66.727,78.77,58.136z"/>
		</g>
	</g>
	<g>
		<path style="fill:#BFBFBF;" d="M65.607,19.494c0,4.816-3.904,8.721-8.721,8.721s-8.721-3.904-8.721-8.721
			c0-4.816,3.904-8.72,8.721-8.72S65.607,14.678,65.607,19.494z"/>
		<path style="opacity:0.15;fill:#230753;" d="M61.639,11.782c1.004,1.421,1.6,3.151,1.6,5.024c0,4.816-3.904,8.72-8.719,8.72
			c-1.469,0-2.852-0.367-4.067-1.008c1.58,2.234,4.178,3.697,7.121,3.697c4.816,0,8.721-3.904,8.721-8.721
			C66.295,16.147,64.406,13.244,61.639,11.782z"/>
		<path style="fill:#CFCFCD;" d="M56.887,29.39c-5.457,0-9.896-4.439-9.896-9.896c0-5.457,4.439-9.896,9.896-9.896
			c5.457,0,9.897,4.439,9.897,9.896C66.783,24.951,62.344,29.39,56.887,29.39z M56.887,11.949c-4.16,0-7.545,3.385-7.545,7.545
			c0,4.161,3.385,7.545,7.545,7.545c4.16,0,7.545-3.384,7.545-7.545C64.432,15.334,61.047,11.949,56.887,11.949z"/>
	</g>
	<circle style="fill:#BFBFBF;" cx="34.228" cy="38.682" r="3.283"/>
	<path style="opacity:0.15;fill:#230753;" d="M36.406,36.241c0.145,0.37,0.23,0.77,0.23,1.191c0,1.813-1.469,3.283-3.283,3.283
		c-0.84,0-1.596-0.324-2.178-0.843c0.478,1.223,1.66,2.093,3.053,2.093c1.815,0,3.283-1.471,3.283-3.283
		C37.512,37.708,37.08,36.842,36.406,36.241z"/>
	<g>
		<path style="fill:#BFBFBF;" d="M15.068,28.88c6.26,0,11.334-5.075,11.334-11.334c0-5.036-3.285-9.302-7.828-10.779
			C12.744,10.606,7.947,15.885,4.689,22.1C6.443,26.091,10.428,28.88,15.068,28.88z"/>
	</g>
	<path style="opacity:0.15;fill:#230753;" d="M21.861,8.481c1.412,1.889,2.25,4.232,2.25,6.772c0,6.26-5.074,11.335-11.336,11.335
		c-2.545,0-4.889-0.843-6.781-2.26c2.068,2.761,5.359,4.551,9.074,4.551c6.26,0,11.334-5.075,11.334-11.334
		C26.402,13.836,24.617,10.548,21.861,8.481z"/>
	<path style="fill:#BFBFBF;" d="M29.801,58.161c0,3.441-2.791,6.232-6.232,6.232s-6.23-2.791-6.23-6.232
		c0-3.441,2.789-6.231,6.23-6.231S29.801,54.719,29.801,58.161z"/>
	<path style="opacity:0.15;fill:#230753;" d="M27.012,52.969c0.654,0.986,1.039,2.168,1.039,3.441c0,3.441-2.791,6.231-6.232,6.231
		c-1.274,0-2.455-0.384-3.441-1.038c1.115,1.68,3.023,2.788,5.191,2.788c3.441,0,6.232-2.79,6.232-6.231
		C29.801,55.993,28.691,54.084,27.012,52.969z"/>
</g>
</svg>
