<?xml version="1.0" encoding="utf-8"?>
<!-- Generator: Adobe Illustrator 22.1.0, SVG Export Plug-In . SVG Version: 6.00 Build 0)  -->
<svg version="1.1" id="BACKGROUND_2" xmlns="http://www.w3.org/2000/svg" xmlns:xlink="http://www.w3.org/1999/xlink" x="0px"
	 y="0px" viewBox="0 0 94.1 67.5" style="enable-background:new 0 0 94.1 67.5;" xml:space="preserve">
<style type="text/css">
	.st0{display:none;}
	.st1{display:inline;opacity:0.32;}
	.st2{fill:url(#SVGID_1_);}
	.st3{fill:url(#SVGID_2_);}
	.st4{fill:url(#SVGID_3_);}
	.st5{fill:url(#SVGID_4_);}
	.st6{fill:#FF619D;}
	.st7{fill:url(#SVGID_5_);}
	.st8{fill:url(#SVGID_6_);}
	.st9{fill:#FFFFFF;}
	.st10{fill:none;}
	.st11{fill:#230753;}
	.st12{opacity:0.15;fill:#230753;}
	.st13{fill:url(#SVGID_7_);}
	.st14{fill:url(#SVGID_8_);}
	.st15{fill:#FFB92F;}
	.st16{fill:url(#SVGID_9_);}
	.st17{fill:url(#SVGID_10_);}
	.st18{fill:url(#SVGID_11_);}
	.st19{fill:url(#SVGID_12_);}
</style>
<g class="st0">
	<g class="st1">
		<radialGradient id="SVGID_1_" cx="47.0335" cy="33.7584" r="56.196" gradientUnits="userSpaceOnUse">
			<stop  offset="0" style="stop-color:#FF619D"/>
			<stop  offset="1" style="stop-color:#FFFFFF"/>
		</radialGradient>
		<path class="st2" d="M103.2,33.8c0,31-25.2,56.2-56.2,56.2C16,90-9.2,64.8-9.2,33.8c0-31,25.2-56.2,56.2-56.2
			C78.1-22.4,103.2,2.7,103.2,33.8z"/>
		<radialGradient id="SVGID_2_" cx="47.0334" cy="33.7584" r="47.4524" gradientUnits="userSpaceOnUse">
			<stop  offset="0.5" style="stop-color:#FF619D"/>
			<stop  offset="1" style="stop-color:#FFFFFF"/>
		</radialGradient>
		<path class="st3" d="M94.5,33.8C94.5,60,73.2,81.2,47,81.2C20.8,81.2-0.4,60-0.4,33.8c0-26.2,21.2-47.5,47.5-47.5
			C73.2-13.7,94.5,7.6,94.5,33.8z"/>
	</g>
	<g class="st1">
		<radialGradient id="SVGID_3_" cx="47.0335" cy="35.0455" r="39.966" gradientUnits="userSpaceOnUse">
			<stop  offset="0.5" style="stop-color:#FF619D"/>
			<stop  offset="1" style="stop-color:#FFFFFF"/>
		</radialGradient>
		<path class="st4" d="M87,35c0,22.1-17.9,40-40,40c-22.1,0-40-17.9-40-40c0-22.1,17.9-40,40-40C69.1-4.9,87,13,87,35z"/>
	</g>
</g>
<g>
	<g>
		
			<linearGradient id="SVGID_4_" gradientUnits="userSpaceOnUse" x1="16.4398" y1="32.7583" x2="80.8871" y2="32.7583" gradientTransform="matrix(-1 0 0 1 94.0669 0)">
			<stop  offset="0" style="stop-color:#FF247E"/>
			<stop  offset="1" style="stop-color:#C20768"/>
		</linearGradient>
		<path class="st5" d="M13.2,32.8C13.2,50.6,27.6,65,45.4,65c17.8,0,32.2-14.4,32.2-32.2C77.6,15,63.2,0.5,45.4,0.5
			C27.6,0.5,13.2,15,13.2,32.8z"/>
		<path class="st6" d="M54.2,3.7c0,2,1.6,3.7,3.7,3.7s3.7-1.6,3.7-3.7S60,0,57.9,0S54.2,1.6,54.2,3.7z"/>
		
			<linearGradient id="SVGID_5_" gradientUnits="userSpaceOnUse" x1="15.0336" y1="57.4741" x2="20.2387" y2="57.4741" gradientTransform="matrix(-1 0 0 1 94.0669 0)">
			<stop  offset="0" style="stop-color:#FF247E"/>
			<stop  offset="1" style="stop-color:#C20768"/>
		</linearGradient>
		<path class="st7" d="M73.8,57.5c0,1.4,1.2,2.6,2.6,2.6c1.4,0,2.6-1.2,2.6-2.6c0-1.4-1.2-2.6-2.6-2.6C75,54.9,73.8,56,73.8,57.5z"
			/>
		<g>
			
				<linearGradient id="SVGID_6_" gradientUnits="userSpaceOnUse" x1="41.2484" y1="14.7547" x2="80.6195" y2="14.7547" gradientTransform="matrix(-1 0 0 1 94.0669 0)">
				<stop  offset="0" style="stop-color:#FF247E"/>
				<stop  offset="1" style="stop-color:#C20768"/>
			</linearGradient>
			<path class="st8" d="M45.4,0.5c2.6,0,5,0.3,7.4,0.9c0,4.2-1.2,11.1-8.5,11.8c-10.7,1.1-11.4,8.9-11.4,8.9s-1.2,7.7-6.1,6.8
				c-3.5-0.6-9.8-2.4-13.4-0.2C15.5,12.8,29,0.5,45.4,0.5z"/>
			<path class="st9" d="M10.9,32.3l-0.2,1.1C10.8,33,10.9,32.6,10.9,32.3z"/>
		</g>
		<g>
			<path class="st10" d="M16.3,46.6c-0.1-0.2-0.2-0.4-0.3-0.6C16.1,46.3,16.2,46.5,16.3,46.6C16.3,46.7,16.3,46.7,16.3,46.6z"/>
			<path class="st11" d="M16,46c-0.2-0.4-0.3-0.8-0.5-1.2c0,0,0.1-0.1,0.1-0.1C15.7,45.2,15.9,45.6,16,46z"/>
			<path class="st12" d="M26.6,6.6c-4.7,5.6-7.6,12.8-7.6,20.7c0,9.5,4.1,18,10.6,23.9c6.3-0.5,14.1-2.8,21.9-6.9
				c15.4-8.2,25-20.4,21.8-27.6c2.4,4.3,3.9,9.1,4.2,14.3c-6.1,5.5-15,11.7-25.4,17.2c-5.6,3-11,5.5-16.1,7.5
				c4.5,2.4,9.7,3.8,15.2,3.8c7,0,13.5-2.2,18.8-6C64.2,60.5,55.3,65,45.4,65c-7,0-13.5-2.2-18.7-6c-4.4-3.1-7.9-7.3-10.3-12.2
				c-0.1-0.2-0.2-0.5-0.3-0.7c-0.2-0.4-0.3-0.8-0.4-1.3c0,0-0.1,0.1-0.1,0.1c-1.5-3.7-2.4-7.8-2.4-12.1C13.2,22,18.5,12.4,26.6,6.6z
				"/>
		</g>
		<g>
			
				<linearGradient id="SVGID_7_" gradientUnits="userSpaceOnUse" x1="2.4255" y1="6.2899" x2="97.965" y2="57.1758" gradientTransform="matrix(-1 0 0 1 94.0669 0)">
				<stop  offset="0" style="stop-color:#F1C13B"/>
				<stop  offset="1" style="stop-color:#FF1200"/>
			</linearGradient>
			<path class="st13" d="M16,46c0.1,0.3,0.3,0.6,0.4,0.9c0-0.1-0.1-0.2-0.1-0.2C16.2,46.4,16.1,46.2,16,46z"/>
			
				<linearGradient id="SVGID_8_" gradientUnits="userSpaceOnUse" x1="4.4576" y1="7.1873" x2="97.7439" y2="56.8732" gradientTransform="matrix(-1 0 0 1 94.0669 0)">
				<stop  offset="0" style="stop-color:#F1C13B"/>
				<stop  offset="1" style="stop-color:#FF1200"/>
			</linearGradient>
			<path class="st14" d="M73.3,16.7c-0.2-0.4-0.5-0.8-0.7-1.2c0.2,0.3,0.4,0.6,0.6,0.9C73.2,16.5,73.3,16.6,73.3,16.7z"/>
			<path class="st15" d="M14.8,42.7c0.2,0.7,0.5,1.4,0.8,2.1c-6.4,5.8-9.6,10.9-8,13.9c1.8,3.3,9.1,3.2,19.1,0.3
				c7.4-2.1,16.3-5.8,25.5-10.7C62.6,42.7,71.5,36.6,77.6,31c6.5-5.9,9.7-11,8.1-14c-1.4-2.6-6.3-3.1-13.2-1.7
				c-0.4-0.6-0.8-1.3-1.3-1.9c11.6-3.1,20.1-2.9,22.3,1.2c2.5,4.8-4.2,13.7-16.3,23.2c-6.4,5-14.3,10.1-23.1,14.8
				c-7.5,4-14.8,7.2-21.5,9.7c-16.4,6-29.3,7.1-32,1.9C-1.9,59.7,3.9,51.5,14.8,42.7z"/>
			<g>
				<path class="st12" d="M87.6,14.1c1,1.9,0,4.7-2.5,8c1-2,1.2-3.7,0.6-5c-1.4-2.6-6.3-3.1-13.2-1.7c-0.4-0.6-0.8-1.3-1.3-1.9
					c3.3-0.9,6.4-1.5,9.1-1.8C84.1,11.5,86.7,12.3,87.6,14.1z"/>
				<path class="st6" d="M15.5,44.8c-2.3,2.1-4.1,4.1-5.5,5.9c1-2,2.8-4.3,5.2-6.7C15.3,44.3,15.4,44.6,15.5,44.8z"/>
				<path class="st12" d="M3.4,54c-1.6,2.9-2,5.4-1,7.2c2.8,5.2,15.6,4.1,32-1.9c6.7-2.4,14-5.7,21.5-9.7
					c8.9-4.7,16.8-9.8,23.1-14.8c5.9-4.6,10.5-9.1,13.4-13c-2.5,4.6-7.9,10.2-15.3,16c-6.4,5-14.3,10.1-23.1,14.8
					c-7.5,4-14.8,7.2-21.5,9.7c-16.4,6-29.3,7.1-32,1.9C-0.8,61.7,0.4,58.2,3.4,54z"/>
			</g>
			
				<linearGradient id="SVGID_9_" gradientUnits="userSpaceOnUse" x1="4.9708" y1="6.5985" x2="97.388" y2="55.8214" gradientTransform="matrix(-1 0 0 1 94.0669 0)">
				<stop  offset="0" style="stop-color:#F1C13B"/>
				<stop  offset="1" style="stop-color:#FF1200"/>
			</linearGradient>
			<path class="st16" d="M72.5,15.4C72.5,15.4,72.5,15.4,72.5,15.4C72.5,15.4,72.6,15.4,72.5,15.4C72.6,15.4,72.5,15.4,72.5,15.4z"
				/>
			
				<linearGradient id="SVGID_10_" gradientUnits="userSpaceOnUse" x1="12.022" y1="10.3541" x2="89.6956" y2="51.7243" gradientTransform="matrix(-1 0 0 1 94.0669 0)">
				<stop  offset="0" style="stop-color:#F1C13B"/>
				<stop  offset="1" style="stop-color:#FF1200"/>
			</linearGradient>
			<path class="st17" d="M72.5,15.4C72.5,15.4,72.5,15.4,72.5,15.4C72.5,15.4,72.6,15.4,72.5,15.4C72.6,15.4,72.5,15.4,72.5,15.4z"
				/>
			
				<linearGradient id="SVGID_11_" gradientUnits="userSpaceOnUse" x1="5.1483" y1="6.4594" x2="97.9103" y2="55.866" gradientTransform="matrix(-1 0 0 1 94.0669 0)">
				<stop  offset="0" style="stop-color:#F1C13B"/>
				<stop  offset="1" style="stop-color:#FF1200"/>
			</linearGradient>
			<path class="st18" d="M16,46c-0.2-0.4-0.3-0.8-0.5-1.2c0,0,0.1-0.1,0.1-0.1C15.7,45.2,15.9,45.6,16,46z"/>
			
				<linearGradient id="SVGID_12_" gradientUnits="userSpaceOnUse" x1="12.2258" y1="10.229" x2="90.1892" y2="51.7537" gradientTransform="matrix(-1 0 0 1 94.0669 0)">
				<stop  offset="0" style="stop-color:#F1C13B"/>
				<stop  offset="1" style="stop-color:#FF1200"/>
			</linearGradient>
			<path class="st19" d="M16,46c-0.2-0.4-0.3-0.8-0.5-1.2c0,0,0.1-0.1,0.1-0.1C15.7,45.2,15.9,45.6,16,46z"/>
		</g>
	</g>
</g>
</svg>
