<?xml version="1.0" encoding="utf-8"?>
<!-- Generator: Adobe Illustrator 22.1.0, SVG Export Plug-In . SVG Version: 6.00 Build 0)  -->
<svg version="1.1" id="BACKGROUND_2" xmlns="http://www.w3.org/2000/svg" xmlns:xlink="http://www.w3.org/1999/xlink" x="0px"
	 y="0px" viewBox="0 0 56.7 55.6" style="enable-background:new 0 0 56.7 55.6;" xml:space="preserve">
<style type="text/css">
	.st0{opacity:6.000000e-02;fill:#FFFFFF;}
	.st1{fill:#FFE973;}
	.st2{opacity:0.15;fill:#230753;}
	.st3{fill:#E7CD64;}
	.st4{opacity:0.15;}
	.st5{fill:#230753;}
</style>
<g>
	<g>
		<path class="st0" d="M7.3,17.8c-1.7,2.7-3.4,5.6-3.1,8.8c0.1,1.5,0.7,3,1.3,4.4c1.9,4.7,3.9,9.6,8,12.8c1.2,0.9,2.5,1.7,3.8,2.5
			c1.4,0.8,2.8,1.6,4.2,2.4c1.1,0.7,2.3,1.3,3.6,1.7c1.1,0.3,2.2,0.5,3.3,0.6c3.3,0.3,6.6,0.5,9.9,0.6c1.6,0,3.3,0,4.9-0.6
			c3.1-1.3,4.5-4.7,5.6-7.7c0.6-1.8,1.3-3.6,1.9-5.4c1.1-3.2,2.2-6.4,2.1-9.8c-0.1-2.8-1.1-5.5-2.1-8.1c-1-2.7-2-5.4-3-8.1
			c-0.4-1.2-0.9-2.4-1.7-3.5C44.8,7,43.2,6,41.5,5.3c-2.9-1.2-6.2-1.6-9.3-1c-1.8,0.3-3.6,0.9-5.3,1.6c-4.1,1.5-8.3,3-12.2,4.9
			c-1.5,0.7-3.5,1.5-4.7,2.7C8.9,14.7,8.1,16.4,7.3,17.8z"/>
		<path class="st0" d="M3.7,16.1c-1.9,3.2-4,6.6-3.7,10.3c0.1,1.8,0.8,3.5,1.5,5.2c2.2,5.5,4.6,11.2,9.4,15c1.4,1.1,2.9,2,4.5,2.9
			c1.6,1,3.3,1.9,4.9,2.9c1.3,0.8,2.7,1.6,4.2,2c1.2,0.4,2.5,0.5,3.8,0.7c3.8,0.4,7.7,0.6,11.6,0.6c1.9,0,3.9,0,5.7-0.7
			c3.6-1.5,5.2-5.5,6.5-9c0.7-2.1,1.5-4.2,2.2-6.3c1.3-3.7,2.6-7.5,2.4-11.5c-0.1-3.2-1.3-6.4-2.4-9.4c-1.2-3.1-2.3-6.3-3.5-9.4
			c-0.5-1.4-1.1-2.8-2-4.1c-1.2-1.7-3.1-2.9-5.1-3.7c-3.4-1.4-7.3-1.8-10.9-1.2c-2.1,0.4-4.2,1.1-6.2,1.8c-4.8,1.7-9.7,3.5-14.3,5.7
			C10.5,8.7,8.2,9.6,6.8,11C5.5,12.4,4.7,14.5,3.7,16.1z"/>
		<path class="st1" d="M10.6,19.4c-1.4,2.3-2.8,4.8-2.6,7.4C8,28.1,8.5,29.3,9,30.5c1.6,4,3.3,8.1,6.8,10.8c1,0.8,2.1,1.4,3.2,2.1
			c1.2,0.7,2.4,1.4,3.5,2.1c1,0.6,1.9,1.1,3,1.5c0.9,0.3,1.8,0.4,2.8,0.5c2.8,0.3,5.6,0.4,8.3,0.5c1.4,0,2.8,0,4.1-0.5
			c2.6-1.1,3.8-3.9,4.7-6.5c0.5-1.5,1.1-3,1.6-4.6c0.9-2.7,1.9-5.4,1.8-8.3c-0.1-2.3-0.9-4.6-1.7-6.8c-0.8-2.3-1.7-4.5-2.5-6.8
			c-0.4-1-0.8-2-1.4-2.9c-0.9-1.2-2.2-2.1-3.7-2.6c-2.5-1-5.2-1.3-7.9-0.9c-1.5,0.3-3,0.8-4.5,1.3c-3.5,1.2-7,2.5-10.3,4.1
			c-1.3,0.6-3,1.3-4,2.3C11.9,16.7,11.3,18.2,10.6,19.4z"/>
		<path class="st2" d="M47.1,21.2c-0.8-2.3-1.7-4.5-2.5-6.8c-0.4-1-0.8-2-1.4-2.9c-0.5-0.6-1.1-1.2-1.8-1.6c0.1,0.3,0.2,0.5,0.3,0.8
			c0.8,2.3,1.7,4.5,2.5,6.8c0.8,2.2,1.6,4.5,1.7,6.8c0.1,2.8-0.8,5.6-1.8,8.3c-0.5,1.5-1.1,3-1.6,4.6c-0.9,2.6-2.1,5.4-4.7,6.5
			c-1.3,0.5-2.7,0.5-4.1,0.5c-2.8,0-5.6-0.2-8.3-0.5c-0.9-0.1-1.9-0.2-2.8-0.5c-1.1-0.3-2.1-0.9-3-1.5c-1.2-0.7-2.4-1.4-3.5-2.1
			c-1.1-0.6-2.2-1.3-3.2-2.1c-0.5-0.4-0.8-0.8-1.2-1.2c1.1,1.9,2.4,3.6,4.1,5c1,0.8,2.1,1.4,3.2,2.1c1.2,0.7,2.4,1.4,3.5,2.1
			c1,0.6,1.9,1.1,3,1.5c0.9,0.3,1.8,0.4,2.8,0.5c2.8,0.3,5.6,0.4,8.3,0.5c1.4,0,2.8,0,4.1-0.5c2.6-1.1,3.8-3.9,4.7-6.5
			c0.5-1.5,1.1-3,1.6-4.6c0.9-2.7,1.9-5.4,1.8-8.3C48.7,25.7,47.9,23.4,47.1,21.2z"/>
		<path class="st3" d="M34,12.3c-0.2,0.1-0.4,0.1-0.5,0.3c-0.1,0.2-0.2,0.4-0.2,0.6c-0.2,1.4-0.2,2.8-0.2,4.3c0,0.4,0,0.9,0.2,1.3
			c0.1,0.2,0.2,0.5,0.4,0.7c0.9,1,2.3,1.3,3.6,1.3c1,0,2-0.2,2.9-0.5c0.9-0.3,1.8-0.8,2.2-1.7c0.3-0.6,0.2-1.4-0.1-2
			C41,13.8,37,11.4,34,12.3z"/>
		<path class="st3" d="M27.6,28.1c-0.6,0.8-1,1.7-0.8,2.7c0.1,0.4,0.3,0.8,0.6,1c0.4,0.2,0.8,0.2,1.2,0c1.6-0.5,2.6-2.2,4.1-2.8
			c0.1-0.1,0.3-0.1,0.4-0.2c0.1-0.2,0.2-0.4,0.2-0.6c0-0.6-0.3-1.2-0.7-1.7c-0.3-0.4-0.7-0.8-1.2-0.9c-0.9-0.3-1.2,0.3-1.8,0.8
			C28.9,26.9,28.1,27.4,27.6,28.1z"/>
		<path class="st3" d="M36.2,35.7c-0.2,0.1-0.4,0.3-0.5,0.4c-0.1,0.2-0.1,0.5-0.1,0.7c0,0.3,0,0.6,0.2,0.8c0.1,0.2,0.3,0.3,0.5,0.4
			c1.1,0.6,2.3,1.2,3.4,1.8c0.3,0.2,0.6,0.3,1,0.3c0.4,0,0.8-0.3,1-0.6c0.2-0.3,0.3-0.7,0.3-1.1c0.1-1.6-0.7-3.1-1.5-4.5
			c-0.1-0.3-0.3-0.5-0.6-0.7c-0.7-0.4-1.2,0.2-1.6,0.7C37.7,34.6,36.9,35.2,36.2,35.7z"/>
		<path class="st3" d="M40.2,27c-0.2,0.2-0.3,0.4-0.4,0.6c-0.1,0.2-0.1,0.5,0,0.7c1.3,0.6,2.7,0.8,4.1,0.7c0.2-0.7-0.2-1.4-0.7-2
			c-0.4-0.4-0.8-0.9-1.4-1.1C41,25.7,40.6,26.6,40.2,27z"/>
		<path class="st3" d="M17.5,35.3c-0.2,1,0.4,2.2,1.4,2.5c0.3,0.1,0.7,0.2,1,0.2c0.7,0.1,1.3,0.1,2,0.2c0.6,0.1,1.1,0.1,1.6,0.4
			c0.4,0.3,0.7,0.7,1,1.1c0.3,0.4,0.6,0.8,0.9,1.2c0.6,0.8,1.3,1.7,2.1,2.3c0.8,0.6,1.9,1,2.9,0.8c0.2-0.6,0-1.3-0.3-1.9
			c-1.2-2.4-2.9-4.7-5.4-5.6c-0.5-0.2-1.1-0.3-1.6-0.6c-0.5-0.2-1-0.6-1.2-1.1c-0.2-0.4-0.2-0.9-0.3-1.4c0-0.5-0.1-1-0.4-1.3
			c-0.8-1.1-1.5,0.1-2.1,0.7C18.6,33.7,17.8,34.3,17.5,35.3z"/>
		<path class="st3" d="M17.5,28.4c-0.1-0.2-0.3-0.4-0.5-0.5c-1-0.5-2.4-0.2-3.1,0.7c-0.1,0.1-0.2,0.3-0.3,0.5c0,0.3,0.1,0.5,0.2,0.7
			c0.2,0.2,0.4,0.3,0.6,0.4c0.4,0.2,0.8,0.3,1.2,0.4C17.2,31.1,18,29.9,17.5,28.4z"/>
		<path class="st3" d="M29.1,19.8c0.2-0.1,0.3-0.2,0.5-0.2c0.1,0,0.2-0.1,0.2-0.2c0.6-0.7-0.5-1.6-1-1.8c-0.6-0.2-1.1,0.1-1.4,0.6
			c-0.3,0.4-1.2,1.6-0.8,2.1C27.1,20.9,28.7,20,29.1,19.8z"/>
		<path class="st3" d="M18.2,16.2c-0.8,0.5-1.6,1.1-2.2,1.7c-0.7,0.7-1.2,1.5-1.6,2.4c-0.4,1-0.5,2.3,0.1,3.2c0.4,0.6,1.2,1,1.9,1.1
			c0.8,0.1,1.5-0.1,2.2-0.4c0.4-0.2,0.8-0.4,1.1-0.7c0.3-0.3,0.4-0.8,0.4-1.2c-1.2,0.1-2.3,0.3-3.5,0.3c-0.1-0.5,0-0.9,0.3-1.3
			c0.3-0.4,0.6-0.7,1-1c1-0.9,2-2,2.8-3c0.3-0.4,0.7-0.9,0.7-1.4c0.1-0.6-0.3-1.3-1-1C19.6,15.1,18.9,15.8,18.2,16.2z"/>
		<g class="st4">
			<g>
				<path class="st5" d="M18.8,23.5c-0.3,0.3-0.7,0.5-1.1,0.7c-0.5,0.2-1,0.3-1.5,0.4c0.1,0,0.1,0,0.1,0c0.8,0.1,1.5-0.1,2.2-0.4
					c0.4-0.2,0.8-0.4,1.1-0.7c0.3-0.3,0.4-0.8,0.4-1.2c-0.3,0-0.6,0.1-0.9,0.1C19.2,22.8,19.1,23.2,18.8,23.5z"/>
				<path class="st5" d="M20.3,14.8c-0.1,0-0.1,0.1-0.2,0.1c0.2,0.2,0.3,0.5,0.3,0.9c-0.1,0.5-0.4,1-0.7,1.4c-0.9,1.1-1.8,2.1-2.8,3
					c-0.3,0.3-0.7,0.6-1,1c-0.3,0.4-0.4,0.9-0.3,1.3c0.3,0,0.6-0.1,0.9-0.1c-0.1-0.4,0-0.9,0.3-1.3c0.3-0.4,0.6-0.7,1-1
					c1-0.9,2-2,2.8-3c0.3-0.4,0.7-0.9,0.7-1.4C21.4,15.2,21,14.5,20.3,14.8z"/>
			</g>
		</g>
		<path class="st2" d="M32.6,26.5c-0.1-0.2-0.3-0.3-0.5-0.4c0.1,0.2,0.2,0.5,0.2,0.7c0,0.2,0,0.4-0.2,0.6c-0.1,0.1-0.3,0.2-0.4,0.2
			c-1.5,0.7-2.5,2.3-4.1,2.8c-0.3,0.1-0.5,0.1-0.8,0.1c0,0.1,0,0.2,0,0.3c0.1,0.4,0.3,0.8,0.6,1c0.4,0.2,0.8,0.2,1.2,0
			c1.6-0.5,2.6-2.2,4.1-2.8c0.1-0.1,0.3-0.1,0.4-0.2c0.1-0.2,0.2-0.4,0.2-0.6C33.3,27.5,33,27,32.6,26.5z"/>
		<path class="st2" d="M42.2,16.6c-0.3-0.7-0.8-1.4-1.5-2.1c0.1,0.2,0.4,0.4,0.5,0.7c0.3,0.6,0.4,1.4,0.1,2
			c-0.4,0.9-1.3,1.4-2.2,1.7c-0.9,0.3-1.9,0.5-2.9,0.5c-1.1,0-2.2-0.3-3.1-1c0,0.1,0,0.2,0,0.4c0.1,0.2,0.2,0.5,0.4,0.7
			c0.9,1,2.3,1.3,3.6,1.3c1,0,2-0.2,2.9-0.5c0.9-0.3,1.8-0.8,2.2-1.7C42.6,17.9,42.5,17.2,42.2,16.6z"/>
		<path class="st2" d="M40.4,33.9c-0.1-0.3-0.3-0.5-0.6-0.7c0,0,0,0-0.1,0c0.7,1.2,1.3,2.5,1.2,3.9c0,0.4-0.1,0.8-0.3,1.1
			c-0.2,0.3-0.6,0.6-1,0.6c-0.4,0-0.7-0.2-1-0.3c-1-0.6-2-1.1-3-1.7c0,0.3,0,0.6,0.2,0.8c0.1,0.2,0.3,0.3,0.5,0.4
			c1.1,0.6,2.3,1.2,3.4,1.8c0.3,0.2,0.6,0.3,1,0.3c0.4,0,0.8-0.3,1-0.6c0.2-0.3,0.3-0.7,0.3-1.1C42.1,36.9,41.3,35.4,40.4,33.9z"/>
		<path class="st2" d="M43.1,27c-0.1-0.2-0.3-0.3-0.5-0.5c0.2,0.4,0.2,0.7,0.1,1.1c-0.9,0.1-1.9-0.1-2.8-0.3
			c-0.1,0.1-0.2,0.2-0.2,0.3c-0.1,0.2-0.1,0.5,0,0.7c1.3,0.6,2.7,0.8,4.1,0.7C44,28.3,43.5,27.6,43.1,27z"/>
		<g class="st4">
			<g>
				<path class="st5" d="M20.8,32.3c0,0.5,0.1,1,0.3,1.4c0.2,0.4,0.5,0.5,0.9,0.8c0-0.3-0.1-0.5-0.2-0.8c0-0.5-0.1-1-0.4-1.3
					c-0.2-0.3-0.5-0.4-0.7-0.4C20.7,32,20.8,32.1,20.8,32.3z"/>
				<path class="st5" d="M30.3,42.2c-0.5-1-1.2-2-1.9-2.9c0.3,0.5,0.6,1,0.9,1.6c0.3,0.6,0.6,1.3,0.3,1.9c-1,0.2-2.1-0.2-2.9-0.8
					c-0.8-0.6-1.5-1.5-2.1-2.3c-0.3-0.4-0.6-0.8-0.9-1.2c-0.3-0.4-0.6-0.8-1-1.1C22.1,37,21.5,37,21,36.9c-0.7-0.1-1.3-0.1-2-0.2
					c-0.3,0-0.7-0.1-1-0.2c-0.1,0-0.2-0.2-0.3-0.2c0.2,0.7,0.6,1.3,1.3,1.6c0.3,0.1,0.7,0.2,1,0.2c0.7,0.1,1.3,0.1,2,0.2
					c0.6,0.1,1.1,0.1,1.6,0.4c0.4,0.3,0.7,0.7,1,1.1c0.3,0.4,0.6,0.8,0.9,1.2c0.6,0.8,1.3,1.7,2.1,2.3c0.8,0.6,1.9,1,2.9,0.8
					C30.8,43.5,30.5,42.8,30.3,42.2z"/>
			</g>
		</g>
		<path class="st2" d="M17.5,28.4c-0.1-0.2-0.3-0.4-0.5-0.5c-0.1,0-0.2,0-0.4,0c0,1-0.7,1.8-2,1.4c-0.3-0.1-0.6-0.2-1-0.4
			c0,0.1-0.1,0.1-0.1,0.2c0,0.3,0.1,0.5,0.2,0.7c0.2,0.2,0.4,0.3,0.6,0.4c0.4,0.2,0.8,0.3,1.2,0.4C17.2,31.1,18,29.9,17.5,28.4z"/>
		<path class="st2" d="M28.9,17.7c0,0.1,0,0.2-0.1,0.3c-0.1,0.1-0.1,0.1-0.2,0.2c-0.2,0.1-0.3,0.2-0.5,0.2c-0.2,0.1-0.7,0.4-1.2,0.5
			c-0.3,0.5-0.5,1-0.3,1.3c0.4,0.6,2-0.3,2.5-0.5c0.2-0.1,0.3-0.2,0.5-0.2c0.1,0,0.2-0.1,0.2-0.2C30.4,18.8,29.5,18,28.9,17.7z"/>
	</g>
</g>
</svg>
