<?xml version="1.0" encoding="utf-8"?>
<!-- Generator: Adobe Illustrator 22.1.0, SVG Export Plug-In . SVG Version: 6.00 Build 0)  -->
<svg version="1.1" id="Layer_1" xmlns="http://www.w3.org/2000/svg" xmlns:xlink="http://www.w3.org/1999/xlink" x="0px" y="0px"
	 viewBox="0 0 1920 149.4" style="enable-background:new 0 0 1920 149.4;" xml:space="preserve">
<style type="text/css">
	.st0{display:none;fill:#F2F2F2;}
	.st1{display:none;fill:#FFFFFF;}
	.st2{fill:#F2F2F2;}
	.st3{fill:#FFFFFF;}
</style>
<path class="st0" d="M0,49c121.6-21,246.3,28.8,339,32.5c89,3.6,204.6-42.2,276-42.2s209.9,45,276,49.3
	c201,13.1,229.3-65.7,333.1-62.1c114,3.9,164.6,37.1,355.6,29.4S1832,22.1,1920,14.5c0,75.3,0,183.9,0,183.9H0V49z"/>
<path class="st1" d="M0,1.2C148.7-77.2,261.8,14,366.7,17.7c100.7,3.6,214.4-63.1,295.2-63s191.6,67.8,266.4,72.1
	c227.4,13.1,271.2-83.2,388.5-79.6c128.9,3.9,254.1,68.6,470.2,60.9s285.4-69.8,384.9-77.4c0,75.3,0,139.9,0,139.9H0V1.2z"/>
<path class="st1" d="M0-85.4c400-210,587.5,73,796.9,85s293.7-156,430.2-150c118.7,5.2,192.7,142,391.7,135s289.6-168,381.3-175
	c0,69,0,231,0,231H0V-85.4z"/>
<path class="st2" d="M1951.5,201.8c0,0-81.3-88.2-237.7-88.2c-146.9,0-262.8,67.4-452.2,32.5c-228.8-42.2-329,32.7-477.5,34.2
	c-168.4,1.7-254.7-65.1-380.1-61.8c-157.1,4.1-146.9,59.3-319.6,49.3c-85.6-4.9-192.3-36.5-192-36.5V41.6h2059V201.8z"/>
<path class="st3" d="M1920,149.4c0,0-75.8-82.2-221.6-82.2c-137,0-245.1,62.9-421.7,30.3c-213.3-39.3-306.8,30.5-445.3,31.9
	C674.3,131,593.9,68.7,477,71.8c-146.5,3.9-137,55.3-298,46c-79.8-4.6-179.3-34-179-34V0h1920V149.4z"/>
</svg>
