<?xml version="1.0" encoding="iso-8859-1"?>
<!-- Generator: Adobe Illustrator 22.1.0, SVG Export Plug-In . SVG Version: 6.00 Build 0)  -->
<svg version="1.1" id="Capa_1" xmlns="http://www.w3.org/2000/svg" xmlns:xlink="http://www.w3.org/1999/xlink" x="0px" y="0px"
	 viewBox="-49 141 512 512" style="enable-background:new -49 141 512 512;" xml:space="preserve">
<path d="M121.667,461H-17c-17.673,0-32-14.327-32-32V173c0-17.673,14.327-32,32-32h362.667c17.673,0,32,14.327,32,32v192h-21.333
	V173c0-5.891-4.776-10.667-10.667-10.667H-17c-5.891,0-10.667,4.776-10.667,10.667v256c0,5.891,4.776,10.667,10.667,10.667h138.667
	V461z"/>
<path d="M79,450.333h21.333v64H79V450.333z"/>
<path d="M47,418.333H25.667c-17.673,0-32-14.327-32-32V365H15v21.333C15,392.224,19.776,397,25.667,397H47V418.333z"/>
<path d="M-6.333,322.333H15v21.333H-6.333V322.333z"/>
<path d="M258.883,564.776c-64.006,0.003-115.895-51.883-115.898-115.889s51.883-115.895,115.889-115.898
	c30.742-0.001,60.225,12.212,81.961,33.952c45.255,45.263,45.248,118.643-0.015,163.898
	C319.087,552.568,289.614,564.775,258.883,564.776z M258.883,354.333c-52.224-0.018-94.574,42.304-94.592,94.528
	c-0.018,52.224,42.304,94.574,94.528,94.592c52.224,0.018,94.574-42.304,94.592-94.528c0.008-25.072-9.94-49.12-27.659-66.859
	C308.067,364.253,283.984,354.265,258.883,354.333L258.883,354.333z"/>
<path d="M422.573,653c-2.829-0.001-5.541-1.125-7.541-3.125l-66.955-66.965c-4.164-4.165-4.164-10.917,0-15.083l29.76-29.76
	c2-2,4.713-3.125,7.541-3.125c2.829,0.001,5.541,1.125,7.541,3.125L459.875,605c4.164,4.165,4.164,10.917,0,15.083l-29.76,29.76
	C428.12,651.855,425.407,652.991,422.573,653L422.573,653z M370.701,575.368l51.872,51.883l14.677-14.677l-51.872-51.883
	L370.701,575.368z"/>
<path d="M325.754,530.828l15.085-15.085l37.2,37.2l-15.085,15.085L325.754,530.828z"/>
<path d="M335,450.333h-21.333c-0.035-29.441-23.893-53.298-53.333-53.333v-21.333C301.551,375.714,334.953,409.116,335,450.333z"/>
<path d="M57.667,503.667H143V525H57.667V503.667z"/>
<path d="M111,247.667c-17.673,0-32-14.327-32-32s14.327-32,32-32s32,14.327,32,32S128.673,247.667,111,247.667z M111,205
	c-5.891,0-10.667,4.776-10.667,10.667s4.776,10.667,10.667,10.667c5.891,0,10.667-4.776,10.667-10.667S116.891,205,111,205z"/>
<path d="M185.667,322.333c-17.673,0-32-14.327-32-32c0-17.673,14.327-32,32-32s32,14.327,32,32
	C217.667,308.006,203.34,322.333,185.667,322.333z M185.667,279.667c-5.891,0-10.667,4.776-10.667,10.667
	c0,5.891,4.776,10.667,10.667,10.667s10.667-4.776,10.667-10.667C196.333,284.442,191.558,279.667,185.667,279.667z"/>
<path d="M39.458,272.127l53.333-53.333l15.085,15.085l-53.333,53.333L39.458,272.127z"/>
<path d="M114.08,233.905l15.085-15.085l53.333,53.333l-15.085,15.085L114.08,233.905z"/>
<path d="M260.333,247.667c-17.673,0-32-14.327-32-32s14.327-32,32-32s32,14.327,32,32S278.006,247.667,260.333,247.667z
	 M260.333,205c-5.891,0-10.667,4.776-10.667,10.667s4.776,10.667,10.667,10.667c5.891,0,10.667-4.776,10.667-10.667
	S266.224,205,260.333,205z"/>
<path d="M188.787,272.164l53.333-53.333l15.085,15.085l-53.333,53.333L188.787,272.164z"/>
</svg>
