<?xml version="1.0" encoding="iso-8859-1"?>
<!-- Generator: Adobe Illustrator 22.1.0, SVG Export Plug-In . SVG Version: 6.00 Build 0)  -->
<svg version="1.1" id="&#x421;&#x43B;&#x43E;&#x439;_1"
	 xmlns="http://www.w3.org/2000/svg" xmlns:xlink="http://www.w3.org/1999/xlink" x="0px" y="0px" viewBox="0 0 333.84 313"
	 style="enable-background:new 0 0 333.84 313;" xml:space="preserve">
<g>
	<g>
		<defs>
			<rect id="SVGID_1_" width="333.84" height="313"/>
		</defs>
		<clipPath id="SVGID_2_">
			<use xlink:href="#SVGID_1_"  style="overflow:visible;"/>
		</clipPath>
		<path style="clip-path:url(#SVGID_2_);" d="M314.02,19.946C301.16,7.082,284.059,0,265.871,0
			c-18.187,0-35.289,7.082-48.148,19.946L15.438,222.231c-20.583,20.582-20.583,54.07,0,74.652
			c10.289,10.289,23.808,15.434,37.324,15.434c13.515,0,27.035-5.145,37.324-15.434l159.316-159.316
			c14.598-14.598,14.598-38.352,0-52.949c-14.597-14.598-38.347-14.598-52.945,0L94.102,186.969c-3.122,3.125-3.122,8.188,0,11.313
			c3.125,3.125,8.191,3.125,11.316,0L207.77,95.93c8.359-8.359,21.96-8.359,30.32,0c8.359,8.359,8.359,21.961,0,30.32
			L78.773,285.567c-14.343,14.344-37.679,14.344-52.023,0c-6.949-6.946-10.773-16.184-10.773-26.012
			c0-9.824,3.824-19.062,10.773-26.012L229.035,31.258C238.875,21.418,251.957,16,265.871,16c13.914,0,26.996,5.418,36.836,15.258
			c20.313,20.313,20.313,53.36,0,73.672l-145.32,145.32c-3.125,3.125-3.125,8.192,0,11.317c3.121,3.125,8.187,3.125,11.312,0
			L314.02,116.243C340.57,89.696,340.57,46.493,314.02,19.946L314.02,19.946z M314.02,19.946"/>
	</g>
</g>
</svg>
