<?xml version="1.0" encoding="iso-8859-1"?>
<!-- Generator: Adobe Illustrator 22.1.0, SVG Export Plug-In . SVG Version: 6.00 Build 0)  -->
<svg version="1.1" id="Capa_1" xmlns="http://www.w3.org/2000/svg" xmlns:xlink="http://www.w3.org/1999/xlink" x="0px" y="0px"
	 viewBox="-33 157 480 480" style="enable-background:new -33 157 480 480;" xml:space="preserve">
<rect x="127" y="197" width="160" height="16"/>
<path d="M363,457c0-15.438-12.563-28-28-28h-16V317h-16v112h-20c-15.438,0-28,12.563-28,28c0,7.838,3.258,14.912,8.466,20
	c-5.208,5.088-8.466,12.162-8.466,20c0,5.393,1.605,10.39,4.259,14.668C249.689,516.125,243,525.768,243,537
	c0,4.311,1.061,8.349,2.809,12H183c0-24.461-12.258-46.109-30.953-59.125C170.125,482.984,183,465.469,183,445c0-4.418-3.578-8-8-8
	h-64v-80H95v80c-13.234,0-24,10.766-24,24v176h16V461c0-4.41,3.586-8,8-8h70.984c-3.555,13.785-16.102,24-30.984,24h-24
	c-4.422,0-8,3.582-8,8s3.578,8,8,8c30.875,0,56,25.121,56,56v8c0,4.418,3.578,8,8,8h46.809c-1.748,3.651-2.809,7.689-2.809,12
	c0,15.438,12.563,28,28,28v32h16v-32h32h4c15.438,0,28-12.563,28-28c0-4.357-1.087-8.433-2.871-12.114
	C339.034,564.278,351,552.051,351,537c0-5.393-1.605-10.39-4.259-14.668C356.311,517.875,363,508.232,363,497
	c0-7.838-3.258-14.912-8.466-20C359.742,471.912,363,464.838,363,457z M299,589h-4h-40h-8c-6.617,0-12-5.383-12-12s5.383-12,12-12
	h24h28c6.617,0,12,5.383,12,12S305.617,589,299,589z M323,549h-24h-28c-6.617,0-12-5.383-12-12s5.383-12,12-12h12h40
	c6.617,0,12,5.383,12,12S329.617,549,323,549z M347,497c0,6.617-5.383,12-12,12h-12h-40c-6.617,0-12-5.383-12-12s5.383-12,12-12h52
	C341.617,485,347,490.383,347,497z M283,469c-6.617,0-12-5.383-12-12s5.383-12,12-12h52c6.617,0,12,5.383,12,12s-5.383,12-12,12H283
	z"/>
<path d="M75.508,246.711C73.516,236.625,64.664,229,54.078,229c-11.945,0-21.688,9.711-21.844,21.707
	c-6.391-1.117-12.5-3.57-17.969-7.254l-2.789-1.883c-2.445-1.652-5.617-1.832-8.234-0.434C0.633,242.523-1,245.242-1,248.199v6.563
	c0,9.641,2.906,18.836,8.297,26.559l-5.984,6.055c-2.273,2.293-2.938,5.727-1.695,8.707C0.859,299.059,3.773,301,7,301h38.766
	c15.461,0,28.242-11.785,29.961-26.91l8.961-9.066c1.617-1.637,2.453-3.895,2.289-6.195c-0.164-2.297-1.305-4.414-3.141-5.805
	L75.508,246.711z M62.234,264.977c-1.484,1.496-2.313,3.52-2.313,5.625c0,7.938-6.352,14.398-14.156,14.398H25.414
	c1.266-2.914,0.719-6.43-1.648-8.824c-3.734-3.781-6.406-8.539-7.758-13.668c7.633,3.219,15.836,4.891,24.227,4.891
	c4.422,0,8-3.582,8-8V251c0-3.309,2.625-6,5.844-6s5.844,2.691,5.844,6c0,2.504,1.172,4.863,3.164,6.375l3.813,2.887L62.234,264.977
	z"/>
<path d="M199,285v24h-16v16h16v32h16v-32h16v-16h-16v-16h16v-16h-24C202.578,277,199,280.582,199,285z"/>
<path d="M279,365v-96c0-13.234-10.766-24-24-24h-96c-13.234,0-24,10.766-24,24v96c0,13.234,10.766,24,24,24h96
	C268.234,389,279,378.234,279,365z M151,365v-96c0-4.41,3.586-8,8-8h96c4.414,0,8,3.59,8,8v96c0,4.41-3.586,8-8,8h-96
	C154.586,373,151,369.41,151,365z"/>
<path d="M111,317v-96c0-13.234-10.766-24-24-24H-9c-13.234,0-24,10.766-24,24v96c0,13.234,10.766,24,24,24h96
	C100.234,341,111,330.234,111,317z M-17,317v-96c0-4.41,3.586-8,8-8h96c4.414,0,8,3.59,8,8v96c0,4.41-3.586,8-8,8H-9
	C-13.414,325-17,321.41-17,317z"/>
<path d="M423,157h-96c-13.234,0-24,10.766-24,24v96c0,13.234,10.766,24,24,24h96c13.234,0,24-10.766,24-24v-96
	C447,167.766,436.234,157,423,157z M327,173h96c4.414,0,8,3.59,8,8v40h-16.809c-3.717-18.234-19.876-32-39.191-32
	s-35.474,13.766-39.191,32H319v-40C319,176.59,322.586,173,327,173z M399,229c0,13.234-10.766,24-24,24s-24-10.766-24-24
	s10.766-24,24-24S399,215.766,399,229z M423,285h-96c-4.414,0-8-3.59-8-8v-40h16.809c3.717,18.234,19.876,32,39.191,32
	s35.474-13.766,39.191-32H431v40C431,281.41,427.414,285,423,285z"/>
<rect x="199" y="485" width="16" height="16"/>
</svg>
