<?xml version="1.0" encoding="iso-8859-1"?>
<!-- Generator: Adobe Illustrator 22.1.0, SVG Export Plug-In . SVG Version: 6.00 Build 0)  -->
<svg version="1.1" id="Capa_1" xmlns="http://www.w3.org/2000/svg" xmlns:xlink="http://www.w3.org/1999/xlink" x="0px" y="0px"
	 viewBox="-49 141 512 512" style="enable-background:new -49 141 512 512;" xml:space="preserve">
<path d="M76.977,193.037h71.987c5.521,0,9.998-4.476,9.998-9.998c0-5.522-4.477-9.998-9.998-9.998H76.977
	c-5.521,0-9.998,4.476-9.998,9.998C66.979,188.561,71.456,193.037,76.977,193.037z"/>
<path d="M112.97,594.724c-2.63,0-5.209,1.07-7.069,2.93c-1.86,1.86-2.929,4.439-2.929,7.069c0,2.63,1.069,5.209,2.929,7.069
	c1.86,1.86,4.439,2.929,7.069,2.929s5.209-1.07,7.068-2.929c1.86-1.86,2.93-4.439,2.93-7.069c0-2.64-1.07-5.209-2.93-7.069
	C118.179,595.793,115.6,594.724,112.97,594.724z"/>
<path d="M361.848,395.151c15.083-13.975,19.107-37.036,8.401-55.579c-6.019-10.424-15.735-17.881-27.363-20.996
	c-8.333-2.234-16.933-2.031-24.976,0.473l-36.778-63.701c-1.661-2.876-4.642-4.741-7.956-4.974
	c-3.316-0.237-6.527,1.195-8.574,3.809L150.094,400.411l-48.056,27.745c-27.422,15.831-36.85,51.021-21.018,78.443
	c7.67,13.284,20.052,22.786,34.869,26.755c4.947,1.326,9.967,1.982,14.955,1.982c9.95,0,19.77-2.609,28.619-7.719l5.723-3.304
	l19.961,34.573H-29.004V225.032h283.948v2.999c0,5.522,4.477,9.998,9.998,9.998c5.521,0,9.998-4.476,9.998-9.998v-47.73
	c0-21.644-17.609-39.254-39.254-39.254H-9.746c-21.645,0-39.254,17.609-39.254,39.254V613.7c0,21.644,17.609,39.254,39.254,39.254
	h245.434c21.644,0,39.254-17.609,39.254-39.254V490.313l116.44-16.551c3.288-0.467,6.13-2.537,7.583-5.523
	c1.454-2.985,1.33-6.499-0.331-9.374L361.848,395.151z M337.711,337.892c6.468,1.733,11.873,5.881,15.221,11.68
	c5.134,8.893,4.178,19.656-1.56,27.437l-22.988-39.817C331.469,336.841,334.622,337.064,337.711,337.892z M209.492,479.418
	l-40.686-70.469l72.718-92.862l84.718,146.736L209.492,479.418z M149.465,510.3c-8.658,4.999-18.747,6.326-28.401,3.739
	c-9.656-2.588-17.727-8.78-22.726-17.439c-10.318-17.873-4.173-40.809,13.699-51.128l41.075-23.715l37.424,64.829L149.465,510.3z
	 M200.534,503.905l23.621,40.912l-18.031,10.41l-23.621-40.911L200.534,503.905z M-9.746,161.043h245.434
	c10.618,0,19.257,8.638,19.257,19.257v24.734H-29.004v-24.734C-29.004,169.682-20.364,161.043-9.746,161.043z M235.687,632.957
	H-9.746c-10.618,0-19.257-8.638-19.257-19.257v-34.817h283.948v34.817C254.944,624.318,246.305,632.957,235.687,632.957z
	 M254.944,558.886h-15.167l3.033-1.752c4.782-2.76,6.421-8.875,3.659-13.658l-26.207-45.393l34.682-4.93V558.886z M347.581,459.789
	l-92.766-160.676l16.403-20.946l102.698,177.878L347.581,459.789z"/>
<path d="M461.658,287.14c-2.762-4.781-8.874-6.421-13.658-3.659l-49.023,28.304c-4.782,2.76-6.421,8.875-3.659,13.658
	c1.853,3.207,5.212,5,8.668,5c1.696,0,3.415-0.432,4.989-1.341l49.023-28.304C462.781,298.037,464.42,291.922,461.658,287.14z"/>
<path d="M358.842,289.233c0.867,0.232,1.737,0.343,2.594,0.343c4.414,0,8.454-2.946,9.651-7.413l7.147-26.674
	c1.43-5.334-1.736-10.816-7.07-12.246c-5.335-1.43-10.815,1.737-12.245,7.07l-7.147,26.674
	C350.343,282.322,353.508,287.804,358.842,289.233z"/>
<path d="M447.524,374.037l-27.566-7.387c-5.335-1.43-10.815,1.737-12.245,7.07c-1.43,5.334,1.736,10.816,7.07,12.246l27.566,7.387
	c0.867,0.232,1.737,0.343,2.594,0.343c4.414,0,8.454-2.946,9.651-7.413C456.023,380.949,452.858,375.466,447.524,374.037z"/>
<path d="M150.63,264.192c0-5.522-4.477-9.998-9.998-9.998H2.669c-5.521,0-9.998,4.476-9.998,9.998c0,5.522,4.477,9.998,9.998,9.998
	h137.964C146.153,274.191,150.63,269.714,150.63,264.192z"/>
<path d="M140.635,322.184c2.63,0,5.209-1.07,7.069-2.929c1.859-1.86,2.929-4.439,2.929-7.069s-1.07-5.209-2.929-7.069
	c-1.86-1.87-4.439-2.929-7.069-2.929c-2.64,0-5.209,1.06-7.069,2.929c-1.87,1.86-2.929,4.439-2.929,7.069s1.06,5.209,2.929,7.069
	C135.426,321.113,137.996,322.184,140.635,322.184z"/>
<path d="M109.304,312.184c0-5.522-4.477-9.998-9.998-9.998H2.669c-5.521,0-9.998,4.476-9.998,9.998c0,5.522,4.477,9.998,9.998,9.998
	h96.637C104.827,322.182,109.304,317.706,109.304,312.184z"/>
<path d="M41.074,370.173h75.804c5.521,0,9.998-4.476,9.998-9.998c0-5.522-4.477-9.998-9.998-9.998H41.074
	c-5.521,0-9.998,4.476-9.998,9.998C31.076,365.697,35.552,370.173,41.074,370.173z"/>
<path d="M2.586,350.177c-5.521,0-9.998,4.476-9.998,9.998c0,5.522,4.477,9.998,9.998,9.998h0.464c5.521,0,9.998-4.476,9.998-9.998
	c0-5.522-4.477-9.998-9.998-9.998H2.586z"/>
</svg>
