<?xml version="1.0" encoding="iso-8859-1"?>
<!-- Generator: Adobe Illustrator 22.1.0, SVG Export Plug-In . SVG Version: 6.00 Build 0)  -->
<svg version="1.1" id="Layer_1" xmlns="http://www.w3.org/2000/svg" xmlns:xlink="http://www.w3.org/1999/xlink" x="0px" y="0px"
	 viewBox="-49 177.653 512 438.694" style="enable-background:new -49 177.653 512 438.694;" xml:space="preserve">
<path d="M436.083,177.653H-22.083C-36.925,177.653-49,189.728-49,204.57V589.43c0,14.842,12.075,26.917,26.917,26.917h458.166
	c14.842,0,26.917-12.075,26.917-26.917V204.57C463,189.728,450.925,177.653,436.083,177.653z M445.819,204.57v9.736h-19.472v-19.472
	h9.736C441.451,194.834,445.819,199.202,445.819,204.57z M78.141,214.306v-19.472h331.025v19.472H78.141z M41.488,214.306v-19.472
	H60.96v19.472H41.488z M4.834,214.306v-19.472h19.472v19.472H4.834z M-22.083,194.834h9.736v19.472h-19.472v-9.736
	C-31.819,199.202-27.451,194.834-22.083,194.834z M436.083,599.166H-22.083c-5.369,0-9.736-4.367-9.736-9.736V231.488h477.638
	V589.43C445.819,594.798,441.451,599.166,436.083,599.166z"/>
<path d="M417.756,250.96H-3.756c-4.744,0-8.591,3.846-8.591,8.591c0,4.744,3.846,8.591,8.591,8.591h421.512
	c4.744,0,8.591-3.846,8.591-8.591C426.347,254.806,422.5,250.96,417.756,250.96z"/>
<path d="M280.306,305.94H261.98c-7.907,0-14.617,5.198-16.907,12.353c-73.698,43.017-153.528,50.3-176.506,51.508
	c-9.404,0.496-16.77,8.28-16.77,17.724v37.276c0,9.444,7.366,17.228,16.77,17.723c4.579,0.241,11.426,0.725,20.023,1.684
	l25.813,94.901c2.097,7.71,9.142,13.094,17.132,13.094h29.617c0.009,0,0.018,0.002,0.027,0.002c0.011,0,0.023-0.002,0.033-0.002
	h9.135c4.744,0,8.591-3.846,8.591-8.591s-3.846-8.591-8.591-8.591h-2.601l-21.958-80.51c30.325,7.555,65.45,19.772,99.284,39.52
	c2.291,7.157,9.002,12.353,16.907,12.353h18.327c9.79,0,17.754-7.964,17.754-17.754v-164.94
	C298.06,313.904,290.096,305.94,280.306,305.94z M68.978,424.801v-37.276c0-0.317,0.202-0.55,0.491-0.566
	c4.433-0.234,10.904-0.686,18.981-1.55v41.506c-8.077-0.864-14.548-1.316-18.981-1.55C69.179,425.351,68.978,425.119,68.978,424.801
	z M149.935,535.022h-18.402c-0.258,0-0.486-0.174-0.553-0.423l-23.912-87.914c6.135,0.958,12.744,2.124,19.741,3.542
	L149.935,535.022z M280.879,488.633c0,0.316-0.257,0.573-0.573,0.573H261.98c-0.316,0-0.573-0.257-0.573-0.573V387.838
	c0-4.744-3.846-8.591-8.591-8.591c-4.744,0-8.591,3.846-8.591,8.591v86.016c-50.866-27.553-103.249-39.544-138.595-44.75v-45.881
	c35.346-5.206,87.73-17.197,138.595-44.75v12.712c0,4.744,3.846,8.591,8.591,8.591c4.744,0,8.591-3.846,8.591-8.591v-27.491
	c0-0.316,0.257-0.573,0.573-0.573h18.327c0.316,0,0.573,0.257,0.573,0.573V488.633z"/>
<path d="M381.103,397.573h-54.98c-4.744,0-8.591,3.846-8.591,8.591c0,4.744,3.846,8.591,8.591,8.591h54.98
	c4.744,0,8.591-3.846,8.591-8.591C389.694,401.419,385.847,397.573,381.103,397.573z"/>
<path d="M326.13,378.103c1.291,0,2.601-0.292,3.835-0.908l36.653-18.327c4.244-2.122,5.964-7.281,3.842-11.525
	c-2.121-4.244-7.281-5.964-11.525-3.842l-36.653,18.327c-4.244,2.122-5.964,7.281-3.842,11.525
	C319.945,376.362,322.978,378.103,326.13,378.103z"/>
<path d="M366.618,453.46l-36.653-18.327c-4.243-2.121-9.403-0.402-11.525,3.842c-2.122,4.244-0.402,9.404,3.842,11.525
	l36.653,18.327c1.234,0.616,2.544,0.908,3.835,0.908c3.151,0,6.185-1.741,7.69-4.751
	C372.582,460.741,370.862,455.581,366.618,453.46z"/>
</svg>
