<?xml version="1.0" encoding="iso-8859-1"?>
<!-- Generator: Adobe Illustrator 22.1.0, SVG Export Plug-In . SVG Version: 6.00 Build 0)  -->
<svg version="1.1" id="Capa_1" xmlns="http://www.w3.org/2000/svg" xmlns:xlink="http://www.w3.org/1999/xlink" x="0px" y="0px"
	 viewBox="-49 141 512 512" style="enable-background:new -49 141 512 512;" xml:space="preserve">
<path d="M460.07,234.916l-91-90.987c-1.875-1.875-4.418-2.929-7.07-2.929H65c-16.542,0-30,13.458-30,30v19.064
	c-49.125,19.27-84,67.151-84,123.027c0,5.522,4.478,10,10,10H83.091c5.522,0,10-4.478,10-10V191c0-5.522-4.478-10-10-10
	c-9.638,0-19.034,1.047-28.091,3.017V171c0-5.514,4.486-10,10-10h287v61c0,16.542,13.458,30,30,30h61v371c0,5.514-4.486,10-10,10H65
	c-5.514,0-10-4.486-10-10v-85.667c0-5.522-4.478-10-10-10s-10,4.478-10,10V623c0,16.542,13.458,30,30,30h368
	c16.542,0,30-13.458,30-30V241.987C463,239.335,461.946,236.791,460.07,234.916z M73.091,303.091H-28.558
	c4.781-53.848,47.801-96.867,101.648-101.648L73.091,303.091L73.091,303.091z M372,222v-46.86L428.868,232H382
	C376.486,232,372,227.514,372,222z"/>
<path d="M37.93,493.93C36.07,495.79,35,498.37,35,501s1.069,5.21,2.93,7.069C39.79,509.93,42.37,511,45,511s5.21-1.07,7.069-2.931
	C53.93,506.21,55,503.63,55,501s-1.07-5.21-2.931-7.07C50.21,492.069,47.63,491,45,491S39.79,492.069,37.93,493.93z"/>
<path d="M251,348.909c0-72.835-59.256-132.09-132.091-132.09c-5.522,0-10,4.478-10,10v112.09H-3.181c-5.522,0-10,4.478-10,10
	c0,72.835,59.255,132.091,132.09,132.091S251,421.744,251,348.909z M190.745,262.932l-61.836,61.835v-87.505
	C152.319,239.34,173.68,248.65,190.745,262.932z M7.262,358.909h111.647c2.76,0,5.258-1.118,7.068-2.926
	c0.001-0.001,0.002-0.001,0.004-0.003l78.909-78.908c16.291,19.467,26.11,44.527,26.11,71.837C231,410.716,180.716,461,118.909,461
	C60.472,461,12.335,416.051,7.262,358.909z"/>
<path d="M241.732,506.604c0-16.542-13.458-30-30-30s-30,13.458-30,30c0,4.482,0.995,8.734,2.765,12.557l-36.695,36.695
	c-3.909-1.87-8.283-2.919-12.897-2.919c-16.542,0-30,13.458-30,30s13.458,30,30,30s30-13.458,30-30
	c0-4.637-1.058-9.031-2.944-12.954l36.49-36.49c4.007,1.988,8.515,3.111,13.283,3.111c5.385,0,10.438-1.433,14.811-3.927
	l37.179,37.179c-1.912,3.945-2.986,8.369-2.986,13.04c0,16.542,13.458,30,30,30s30-13.458,30-30c0-4.558-1.026-8.88-2.853-12.752
	l57.075-57.075c4.209,2.254,9.014,3.536,14.113,3.536c16.542,0,30-13.458,30-30s-13.458-30-30-30s-30,13.458-30,30
	c0,4.146,0.846,8.097,2.373,11.692l-57.613,57.613c-3.959-1.929-8.403-3.014-13.095-3.014c-4.581,0-8.923,1.036-12.81,2.879
	l-38.258-38.258C240.996,514.133,241.732,510.454,241.732,506.604z M134.904,592.938c-5.514,0-10-4.486-10-10s4.486-10,10-10
	c2.685,0,5.12,1.069,6.918,2.797c0.04,0.042,0.075,0.087,0.116,0.128c0.048,0.048,0.1,0.088,0.149,0.134
	c1.74,1.8,2.817,4.246,2.817,6.941C144.904,588.451,140.418,592.938,134.904,592.938z M211.732,516.604c-5.514,0-10-4.486-10-10
	c0-5.514,4.486-10,10-10s10,4.486,10,10C221.732,512.118,217.246,516.604,211.732,516.604z M389.071,476.604c5.514,0,10,4.486,10,10
	s-4.486,10-10,10s-10-4.486-10-10S383.558,476.604,389.071,476.604z M300.736,582.896c0,5.514-4.486,10-10,10s-10-4.486-10-10
	s4.486-10,10-10S300.736,577.382,300.736,582.896z"/>
<path d="M286.311,396h52.779c5.522,0,10-4.478,10-10s-4.478-10-10-10h-52.779c-5.522,0-10,4.478-10,10S280.788,396,286.311,396z"/>
<path d="M377.55,378.93c-1.86,1.86-2.93,4.44-2.93,7.07s1.069,5.21,2.93,7.069c1.86,1.86,4.43,2.931,7.07,2.931
	c2.63,0,5.21-1.07,7.069-2.931c1.86-1.859,2.931-4.439,2.931-7.069s-1.07-5.21-2.931-7.07c-1.859-1.86-4.439-2.93-7.069-2.93
	S379.41,377.069,377.55,378.93z"/>
<path d="M286.311,300h122.154c5.522,0,10-4.478,10-10s-4.478-10-10-10H286.311c-5.522,0-10,4.478-10,10S280.788,300,286.311,300z"/>
<path d="M286.311,348h122.154c5.522,0,10-4.478,10-10s-4.478-10-10-10H286.311c-5.522,0-10,4.478-10,10S280.788,348,286.311,348z"/>
</svg>
