<?xml version="1.0" encoding="iso-8859-1"?>
<!-- Generator: Adobe Illustrator 22.1.0, SVG Export Plug-In . SVG Version: 6.00 Build 0)  -->
<svg version="1.1" id="Capa_1" xmlns="http://www.w3.org/2000/svg" xmlns:xlink="http://www.w3.org/1999/xlink" x="0px" y="0px"
	 viewBox="-49 141 512 512" style="enable-background:new -49 141 512 512;" xml:space="preserve">
<path d="M289.497,520.713h-24.956l-12.148-20.247c3.174-3.296,5.845-7.06,7.894-11.157c5.578-11.156,8.527-23.647,8.527-36.12
	v-35.224c0-34.083-27.729-61.813-61.812-61.813s-61.812,27.73-61.812,61.813v35.224c0,12.473,2.949,24.964,8.527,36.12
	c2.049,4.097,4.718,7.86,7.894,11.157l-12.148,20.247h-24.955c-31.193,0-58.357,22.152-64.592,52.673
	c-0.132,0.648-0.199,1.309-0.199,1.97v67.798c0,5.437,4.408,9.846,9.846,9.846h274.883c5.438,0,9.846-4.409,9.846-9.846v-67.797
	c0-0.662-0.067-1.322-0.199-1.97C347.854,542.866,320.689,520.713,289.497,520.713z M334.595,633.308H79.405v-19.692h48.826
	c5.438,0,9.846-4.409,9.846-9.846s-4.408-9.846-9.846-9.846H79.405v-17.522c4.723-20.915,23.538-35.996,45.098-35.996h30.53
	c3.459,0,6.664-1.815,8.443-4.78l19.3-32.167c2.686-4.475,1.412-10.269-2.903-13.205c-3.642-2.479-6.598-5.85-8.547-9.749
	c-4.218-8.436-6.447-17.881-6.447-27.313v-35.224c0-23.226,18.895-42.121,42.12-42.121s42.12,18.895,42.12,42.121v35.224
	c0,9.433-2.229,18.877-6.447,27.313c-1.813,3.626-4.504,6.786-7.8,9.205l-14.231,5.735c-5.044,2.033-7.485,7.771-5.452,12.814
	c1.547,3.837,5.237,6.169,9.135,6.169c1.225,0,2.471-0.23,3.678-0.718l7.546-3.041l14.975,24.958c1.779,2.967,4.984,4.78,8.443,4.78
	h30.53c21.56,0,40.375,15.079,45.098,35.996v56.906H334.595z"/>
<path d="M432.381,141H-18.381C-35.265,141-49,154.735-49,171.62v106.338c0,16.882,13.735,30.619,30.619,30.619h144.306l77.031,38.17
	c1.377,0.682,2.874,1.024,4.372,1.024c1.507,0,3.016-0.347,4.401-1.039l76.363-38.155h144.289c16.883,0,30.619-13.735,30.619-30.619
	V171.62C463,154.735,449.265,141,432.381,141z M443.308,277.958c0,6.025-4.901,10.926-10.926,10.926H285.769
	c-1.528,0-3.035,0.355-4.401,1.039l-74.059,37.003l-74.708-37.018c-1.359-0.674-2.855-1.024-4.372-1.024H-18.381
	c-6.025,0-10.926-4.901-10.926-10.926V171.62c0-6.025,4.901-10.927,10.926-10.927h450.763c6.025,0,10.926,4.902,10.926,10.927
	V277.958z"/>
<path d="M252.724,201.593l-25.494-3.704l-11.401-23.101c-1.659-3.361-5.082-5.488-8.829-5.488s-7.171,2.128-8.829,5.488
	l-11.401,23.101l-25.494,3.704c-3.709,0.54-6.79,3.138-7.949,6.701c-1.158,3.565-0.192,7.478,2.492,10.094l18.447,17.982
	l-4.355,25.39c-0.634,3.694,0.884,7.427,3.917,9.63c3.033,2.205,7.052,2.492,10.37,0.75L207,260.152l22.802,11.989
	c1.441,0.757,3.014,1.13,4.581,1.13c2.041,0,4.073-0.635,5.789-1.881c3.033-2.203,4.551-5.935,3.917-9.63l-4.355-25.39
	l18.447-17.982c2.684-2.616,3.65-6.529,2.492-10.094C259.513,204.731,256.433,202.133,252.724,201.593z M222.281,225.882
	c-2.321,2.263-3.38,5.521-2.832,8.716l1.857,10.829l-9.724-5.113c-1.435-0.754-3.008-1.13-4.582-1.13s-3.148,0.377-4.582,1.13
	l-9.724,5.113l1.857-10.829c0.548-3.194-0.511-6.453-2.832-8.716l-7.867-7.669l10.872-1.579c3.207-0.467,5.98-2.481,7.413-5.387
	l4.863-9.852l4.862,9.853c1.435,2.906,4.206,4.92,7.413,5.387l10.872,1.579L222.281,225.882z"/>
<path d="M390.57,201.593l-25.494-3.704l-11.401-23.101c-1.659-3.361-5.082-5.488-8.829-5.488c-3.747,0-7.171,2.128-8.829,5.488
	l-11.401,23.101l-25.494,3.704c-3.709,0.54-6.79,3.138-7.949,6.701c-1.158,3.565-0.192,7.478,2.492,10.094l18.447,17.982
	l-4.355,25.39c-0.634,3.694,0.884,7.427,3.917,9.63c3.033,2.205,7.052,2.492,10.37,0.75l22.802-11.989l22.802,11.989
	c1.441,0.757,3.014,1.13,4.581,1.13c2.041,0,4.073-0.635,5.789-1.881c3.033-2.203,4.551-5.935,3.917-9.63l-4.355-25.39
	l18.447-17.982c2.684-2.616,3.65-6.529,2.492-10.094C397.36,204.731,394.279,202.133,390.57,201.593z M360.127,225.882
	c-2.321,2.263-3.38,5.521-2.832,8.716l1.857,10.829l-9.724-5.113c-1.435-0.754-3.008-1.13-4.582-1.13s-3.148,0.377-4.582,1.13
	l-9.724,5.113l1.857-10.829c0.548-3.194-0.511-6.453-2.832-8.716l-7.867-7.669l10.872-1.579c3.207-0.467,5.98-2.481,7.413-5.387
	l4.863-9.852l4.862,9.853c1.435,2.906,4.206,4.92,7.413,5.387l10.872,1.579L360.127,225.882z"/>
<path d="M114.877,201.593l-25.494-3.704l-11.401-23.101c-1.659-3.361-5.082-5.488-8.829-5.488s-7.171,2.128-8.829,5.488
	l-11.401,23.101l-25.494,3.704c-3.709,0.54-6.79,3.138-7.949,6.701c-1.158,3.565-0.192,7.478,2.492,10.094L36.42,236.37
	l-4.355,25.39c-0.634,3.694,0.884,7.427,3.917,9.63c3.033,2.205,7.052,2.492,10.37,0.75l22.802-11.988l22.802,11.989
	c1.44,0.757,3.014,1.13,4.581,1.13c2.041,0,4.073-0.635,5.789-1.881c3.033-2.203,4.551-5.935,3.917-9.63l-4.355-25.39l18.447-17.982
	c2.684-2.616,3.65-6.529,2.492-10.094C121.667,204.731,118.586,202.133,114.877,201.593z M84.435,225.882
	c-2.321,2.263-3.38,5.521-2.832,8.716l1.857,10.829l-9.724-5.113c-1.435-0.754-3.008-1.13-4.582-1.13s-3.148,0.377-4.582,1.13
	l-9.724,5.113l1.857-10.829c0.548-3.194-0.511-6.453-2.832-8.716l-7.867-7.669l10.872-1.579c3.207-0.467,5.98-2.481,7.413-5.387
	l4.863-9.852l4.862,9.853c1.435,2.906,4.206,4.92,7.413,5.387l10.872,1.579L84.435,225.882z"/>
<path d="M166.857,600.008c-0.246-0.601-0.542-1.171-0.906-1.702c-0.354-0.543-0.768-1.045-1.221-1.498
	c-0.453-0.453-0.955-0.866-1.497-1.221c-0.532-0.354-1.103-0.66-1.703-0.906c-0.591-0.246-1.211-0.443-1.841-0.571
	c-1.27-0.256-2.57-0.256-3.84,0c-0.63,0.128-1.25,0.325-1.841,0.571c-0.601,0.246-1.172,0.552-1.703,0.906
	c-0.542,0.354-1.044,0.768-1.497,1.221c-0.453,0.453-0.866,0.955-1.221,1.498c-0.354,0.532-0.66,1.102-0.906,1.702
	c-0.246,0.591-0.443,1.211-0.561,1.841c-0.128,0.63-0.197,1.28-0.197,1.92c0,2.59,1.054,5.13,2.885,6.96
	c0.453,0.453,0.955,0.867,1.497,1.221c0.532,0.364,1.103,0.66,1.703,0.906c0.591,0.246,1.211,0.443,1.841,0.571
	c0.63,0.128,1.28,0.187,1.92,0.187c0.64,0,1.29-0.06,1.92-0.187c0.63-0.128,1.25-0.325,1.841-0.571
	c0.601-0.246,1.172-0.542,1.703-0.906c0.542-0.353,1.044-0.768,1.497-1.221c1.831-1.83,2.885-4.371,2.885-6.96
	c0-0.64-0.069-1.291-0.197-1.92C167.3,601.219,167.103,600.598,166.857,600.008z"/>
</svg>
